<svg xmlns="http://www.w3.org/2000/svg" xmlns:xlink="http://www.w3.org/1999/xlink" width="400" height="400" viewBox="0 0 400 400">
  <defs>
    <clipPath id="clip-happy-home">
      <rect width="400" height="400"/>
    </clipPath>
  </defs>
  <g id="happy-home" clip-path="url(#clip-happy-home)">
    <rect width="400" height="400" fill="rgba(255,255,255,0)"/>
    <g id="Group_1" data-name="Group 1" transform="translate(-750 -219.178)">
      <path id="Path_1" data-name="Path 1" d="M144.309,130.068c.544,3.048-.762,5.769-1.959,8.381q-14.857,31.02-30.694,61.5a3.206,3.206,0,0,1-2.068,1.851,6.908,6.908,0,0,1-3.156-.871c-9.252-4.463-18.612-8.925-27.864-13.5-1.524-.761-3.156-1.523-4.027-2.829-1.306-1.96,0-3.919,1.306-5.334,11.646-12.843,23.4-25.795,35.048-38.639C114.051,137.034,141.153,111.13,144.309,130.068Z" transform="translate(751 209.03)" fill="#a82626" stroke="#191515" stroke-miterlimit="10" stroke-width="1"/>
      <path id="Path_2" data-name="Path 2" d="M144.309,118.313c.544,3.048-.762,5.769-1.959,8.381q-14.857,31.02-30.694,61.5a3.206,3.206,0,0,1-2.068,1.851,6.908,6.908,0,0,1-3.156-.871c-9.252-4.463-18.612-8.925-27.864-13.5-1.524-.761-3.156-1.523-4.027-2.829-1.306-1.96,0-3.919,1.306-5.334,11.646-12.843,23.4-25.795,35.048-38.639C114.051,125.279,141.153,99.375,144.309,118.313Z" transform="translate(751 209.03)" fill="#ca4343" stroke="#191515" stroke-miterlimit="10" stroke-width="1"/>
      <path id="Path_3" data-name="Path 3" d="M124.935,100.9a13.3,13.3,0,0,1,1.524-1.088c2.721-1.524,5.878-2.395,8.163-4.354,1.415-1.306,1.851-3.156,3.266-4.463,2.721-2.612,5.006-5.986,8.707-6.748,2.83-.544,3.265,2.939,4.245,5.007q1.8,4.245,3.592,8.49a8.707,8.707,0,0,1,.979,4.571c-.544,3.375-4.9,5.769-7.292,7.946-2.939,2.612-5.225,7.075-8.817,8.925-.87-.435-1.088-1.415-1.741-1.959-.871-.762-2.286-1.089-3.265-1.633-2.177-1.2-4.245-2.612-6.422-3.7-2.4-1.089-5.66-2.613-5.769-5.66C122,104.055,123.411,102.205,124.935,100.9Z" transform="translate(751 209.03)" fill="#ca4343" stroke="#191515" stroke-miterlimit="10" stroke-width="1"/>
      <path id="Path_4" data-name="Path 4" d="M135.058,103.728a4.217,4.217,0,0,1,3.047.109,16.94,16.94,0,0,1,6.749,4.245" transform="translate(751 209.03)" fill="none" stroke="#191515" stroke-miterlimit="10" stroke-width="1"/>
      <path id="Path_5" data-name="Path 5" d="M143.874,100.245a16.9,16.9,0,0,0,4.354,7.511" transform="translate(751 209.03)" fill="none" stroke="#191515" stroke-miterlimit="10" stroke-width="1"/>
      <path id="Path_6" data-name="Path 6" d="M123.738,108.626a4.838,4.838,0,0,1,3.483.218,23.344,23.344,0,0,1,12.626,10.122" transform="translate(751 209.03)" fill="none" stroke="#191515" stroke-miterlimit="10" stroke-width="1"/>
      <path id="Path_7" data-name="Path 7" d="M200.146,65.633l-.218,27.211" transform="translate(751 209.03)" fill="none" stroke="#191515" stroke-miterlimit="10" stroke-width="6"/>
      <path id="Path_8" data-name="Path 8" d="M206.567,65.416c.109,3.156-2.612,5.769-6.2,5.877-3.483.109-6.421-2.286-6.53-5.442s2.612-5.769,6.2-5.877S206.459,62.259,206.567,65.416Z" transform="translate(751 209.03)" fill="#fff" stroke="#191515" stroke-miterlimit="10" stroke-width="1"/>
      <path id="Path_9" data-name="Path 9" d="M116.228,141.715c11.428-14.8,25.251-27.864,41.795-37.225,12.844-7.292,27.429-11.755,42.449-11.21,49.2,1.741,83.156,48.761,83.156,48.761S321.07,183.075,323.9,248.272s-55.292,94.366-55.292,94.366-70.2,42.884-144.435-4.9c0,0-54.2-32.761-47.02-96.979,3.048-26.775,10.993-53.333,24.49-77.169A231.55,231.55,0,0,1,116.228,141.715Z" transform="translate(751 209.03)" fill="#fff" stroke="#191515" stroke-miterlimit="10" stroke-width="3"/>
      <path id="Path_10" data-name="Path 10" d="M131.357,166.422s9.578-40.6,55.945-47.564c0,0,31.02-6.531,56.163,12.408s27.32,38.2,27.32,38.2c1.959,6.749,2.83,15.238.87,21.987-2.394,8.272-12.081,16-20.68,19.809-13.387,6.1-28.625,7.293-43.319,7.51-21.007.327-43.537,1.089-62.258-9.687a29.714,29.714,0,0,1-8.381-6.748,35.238,35.238,0,0,1-7.4-14.8A41.159,41.159,0,0,1,131.357,166.422Z" transform="translate(751 209.03)" fill="#191515" stroke="#fff" stroke-miterlimit="10" stroke-width="0.5"/>
      <path id="Path_11" data-name="Path 11" d="M140.282,152.055c-.98-5.878,9.361-14.15,12.844-17.2a68.025,68.025,0,0,1,34.612-15.238c36.353-5.224,57.686,14.585,57.686,14.585,4.027,3.374,11.538,8.708,13.388,13.5,2.394,6.313-6.748,9.034-10.993,10.775a167.51,167.51,0,0,1-34.83,9.9c-16.218,2.612-33.306,2.5-48.979-2.721a80.518,80.518,0,0,1-12.191-5.225c-2.938-1.523-8.6-3.918-10.666-6.53A4.135,4.135,0,0,1,140.282,152.055Z" transform="translate(751 209.03)" fill="#232222"/>
      <path id="Path_12" data-name="Path 12" d="M170.649,184.163a15.129,15.129,0,1,0-15.129-15.129A15.128,15.128,0,0,0,170.649,184.163Z" transform="translate(751 209.03)" fill="#fff" stroke="#191515" stroke-miterlimit="10" stroke-width="1"/>
      <path id="Path_13" data-name="Path 13" d="M231.166,184.163a15.129,15.129,0,1,0-15.129-15.129A15.129,15.129,0,0,0,231.166,184.163Z" transform="translate(751 209.03)" fill="#fff" stroke="#191515" stroke-miterlimit="10" stroke-width="1"/>
      <path id="Path_20" data-name="Path 20" d="M129.071,124.735a36,36,0,0,0,3.919-1.524c3.7-1.306,7.4-2.5,11.21-3.592a208.973,208.973,0,0,1,40.055-7.183,197.588,197.588,0,0,1,56.6,3.483c5.115,1.088,10.122,2.394,15.129,3.809,2.612.762,5.116,1.633,7.728,2.5,2.177.762,4.571,1.2,6.53,2.612-.653-1.415-2.612-2.83-3.809-3.918-4.68-4.245-9.469-8.49-14.476-12.409-2.939-2.285-6.422-5.442-10.014-6.748l-1.306-.326c-4.245-.98-8.49-1.415-12.843-2.068-6.749-.979-13.606-1.741-20.463-2.177-18.068-.98-36.9.109-53.986,6.313C153.343,103.62,127.112,122.232,129.071,124.735Z" transform="translate(751 209.03)" fill="#ca4343" stroke="#191515" stroke-miterlimit="10" stroke-width="1"/>
      <path id="Path_21" data-name="Path 21" d="M212.771,186.122c-.217,1.2-1.959,2.721-2.938,3.375a13.106,13.106,0,0,1-4.245,2.176,17.5,17.5,0,0,1-9.47-.108c-2.938-.762-5.768-2.286-6.966-4.9-.217-.436.545-.98,1.2-.871a3.2,3.2,0,0,1,1.959,1.088,14.27,14.27,0,0,0,16.544.871,19.687,19.687,0,0,0,2.286-1.959C211.574,185.36,212.989,184.816,212.771,186.122Z" transform="translate(751 209.03)" fill="#fff" stroke="#fff" stroke-miterlimit="10" stroke-width="0.75"/>
      <path id="Path_23" data-name="Path 23" d="M222.35,147.919a2.939,2.939,0,1,0-2.939-2.939A2.938,2.938,0,0,0,222.35,147.919Z" transform="translate(751 209.03)" fill="#fff"/>
      <path id="Path_24" data-name="Path 24" d="M222.241,144.653s3.592-.653,5.768.762c.218.109.762.653.98.218.327-.544-.871-1.415-1.2-1.742a11.356,11.356,0,0,0-1.959-1.088,7.652,7.652,0,0,0-3.483-.653Z" transform="translate(751.109 208.942)" fill="#fff"/>
      <path id="Path_25" data-name="Path 25" d="M222.349,147.919a2.939,2.939,0,1,1,2.939-2.939A2.938,2.938,0,0,1,222.349,147.919Z" transform="translate(707.246 209.761)" fill="#fff"/>
      <path id="Path_26" data-name="Path 26" d="M229.045,144.653s-3.592-.653-5.768.762c-.218.109-.762.653-.98.218-.327-.544.871-1.415,1.2-1.742a11.356,11.356,0,0,1,1.959-1.088,7.652,7.652,0,0,1,3.483-.653Z" transform="translate(700.55 209.674)" fill="#fff"/>
    </g>
  </g>
</svg>
