<svg width="3950" height="799" viewBox="0 0 3950 799" fill="none" xmlns="http://www.w3.org/2000/svg">
<path d="M435.918 242.781L427.963 243.631L428.727 250.781H435.918V242.781ZM392.673 168.02L388.047 174.547L388.062 174.557L388.077 174.568L392.673 168.02ZM221.528 154.094L224.637 161.465L224.637 161.465L221.528 154.094ZM174.986 188.909L168.535 184.178L168.535 184.178L174.986 188.909ZM158.494 239.116L150.495 239.013L150.494 239.065V239.116H158.494ZM169.122 279.795L162.314 283.996L162.346 284.048L162.379 284.1L169.122 279.795ZM198.807 309.114L194.461 315.83L194.508 315.86L194.555 315.89L198.807 309.114ZM240.219 328.903L237.543 336.443L237.543 336.443L240.219 328.903ZM286.028 342.463L287.969 334.702L287.925 334.691L287.881 334.681L286.028 342.463ZM356.392 360.054L354.452 367.815L354.515 367.831L354.578 367.846L356.392 360.054ZM438.116 386.807L434.957 394.156L434.969 394.162L434.982 394.167L438.116 386.807ZM508.847 429.318L503.761 435.494L503.779 435.508L503.796 435.523L508.847 429.318ZM543.295 692.449L549.922 696.931L549.929 696.92L549.937 696.909L543.295 692.449ZM445.812 770.509L449.03 777.833L449.04 777.829L449.05 777.824L445.812 770.509ZM140.17 771.241L137.055 778.61L137.062 778.613L137.07 778.616L140.17 771.241ZM39.7557 692.082L33.1715 696.626L33.1823 696.642L33.1932 696.658L39.7557 692.082ZM0.909092 565.281V557.281H-7.41078L-7.08476 565.595L0.909092 565.281ZM134.673 565.281L142.651 564.685L142.098 557.281H134.673V565.281ZM158.861 630.514L165.056 625.453L165.056 625.453L158.861 630.514ZM214.199 669.361L211.381 676.848L211.394 676.853L211.407 676.858L214.199 669.361ZM368.852 668.994L371.795 676.433L371.816 676.425L371.837 676.417L368.852 668.994ZM421.625 631.614L427.872 636.611L427.891 636.588L427.909 636.565L421.625 631.614ZM441.048 575.176L449.048 575.267L449.049 575.172L449.048 575.076L441.048 575.176ZM423.824 526.801L417.782 532.045L417.807 532.073L417.832 532.102L423.824 526.801ZM376.548 494.551L373.332 501.876L373.386 501.9L373.44 501.923L376.548 494.551ZM306.185 471.097L304.19 478.844L304.2 478.847L304.211 478.849L306.185 471.097ZM220.795 449.108L222.79 441.361L222.786 441.36L220.795 449.108ZM74.2045 376.912L68.8171 382.826L68.8383 382.845L68.8595 382.864L74.2045 376.912ZM56.6136 131.372L50.1458 126.664L50.1345 126.68L50.1232 126.695L56.6136 131.372ZM155.196 54.0454L158.425 61.3648L158.443 61.3568L158.461 61.3488L155.196 54.0454ZM436.284 54.0454L432.92 61.3039L432.947 61.3162L432.974 61.3283L436.284 54.0454ZM531.202 130.639L524.652 135.233L524.661 135.245L524.669 135.256L531.202 130.639ZM566.75 242.781V250.781H574.89L574.749 242.643L566.75 242.781ZM443.872 241.931C440.217 207.727 424.646 180.688 397.269 161.472L388.077 174.568C411.519 191.022 424.777 213.824 427.963 243.631L443.872 241.931ZM397.299 161.493C370.421 142.444 335.922 133.267 294.457 133.267V149.267C333.618 149.267 364.596 157.926 388.047 174.547L397.299 161.493ZM294.457 133.267C265.343 133.267 239.921 137.656 218.42 146.722L224.637 161.465C243.692 153.43 266.89 149.267 294.457 149.267V133.267ZM218.42 146.722C197.09 155.717 180.304 168.129 168.535 184.178L181.437 193.64C191.168 180.371 205.41 169.573 224.637 161.465L218.42 146.722ZM168.535 184.178C156.763 200.23 150.76 218.596 150.495 239.013L166.494 239.22C166.717 222.012 171.708 206.906 181.437 193.64L168.535 184.178ZM150.494 239.116C150.494 255.997 154.333 271.061 162.314 283.996L175.93 275.595C169.741 265.564 166.494 253.509 166.494 239.116H150.494ZM162.379 284.1C170.379 296.633 181.125 307.201 194.461 315.83L203.153 302.397C191.568 294.901 182.525 285.924 175.866 275.491L162.379 284.1ZM194.555 315.89C207.555 324.047 221.894 330.89 237.543 336.443L242.894 321.364C228.248 316.167 214.98 309.817 203.059 302.337L194.555 315.89ZM237.543 336.443C252.957 341.912 268.501 346.513 284.175 350.246L287.881 334.681C272.772 331.083 257.776 326.645 242.894 321.364L237.543 336.443ZM284.088 350.224L354.452 367.815L358.332 352.293L287.969 334.702L284.088 350.224ZM354.578 367.846C382.469 374.337 409.259 383.109 434.957 394.156L441.276 379.457C414.69 368.027 386.997 358.964 358.206 352.262L354.578 367.846ZM434.982 394.167C460.711 405.126 483.622 418.909 503.761 435.494L513.932 423.143C492.537 405.523 468.295 390.965 441.251 379.447L434.982 394.167ZM503.796 435.523C523.936 451.915 539.837 471.675 551.547 494.859L565.828 487.646C553.106 462.456 535.78 440.926 513.897 423.114L503.796 435.523ZM551.547 494.859C563.096 517.727 569.011 544.787 569.011 576.276H585.011C585.011 542.776 578.711 513.154 565.828 487.646L551.547 494.859ZM569.011 576.276C569.011 618.815 558.165 655.956 536.654 687.989L549.937 696.909C573.38 661.999 585.011 621.691 585.011 576.276H569.011ZM536.669 687.966C515.16 719.763 483.936 744.89 442.575 763.193L449.05 777.824C492.712 758.502 526.477 731.589 549.922 696.931L536.669 687.966ZM442.595 763.184C401.599 781.194 351.573 790.361 292.259 790.361V806.361C353.149 806.361 405.492 796.959 449.03 777.833L442.595 763.184ZM292.259 790.361C234.672 790.361 185.076 781.444 143.271 763.867L137.07 778.616C181.265 797.198 233.061 806.361 292.259 806.361V790.361ZM143.286 763.873C101.779 746.322 69.5598 720.843 46.3182 687.507L33.1932 696.658C58.3266 732.708 93.0503 760.002 137.055 778.61L143.286 763.873ZM46.3399 687.538C23.4053 654.307 10.8091 613.575 8.90295 564.968L-7.08476 565.595C-5.08184 616.669 8.21975 660.472 33.1715 696.626L46.3399 687.538ZM0.909092 573.281H134.673V557.281H0.909092V573.281ZM126.696 565.878C128.751 593.369 137.289 616.753 152.665 635.575L165.056 625.453C152.092 609.582 144.505 589.478 142.651 564.685L126.696 565.878ZM152.665 635.575C167.802 654.105 187.454 667.843 211.381 676.848L217.017 661.873C195.501 653.776 178.26 641.616 165.056 625.453L152.665 635.575ZM211.407 676.858C235.394 685.789 262.012 690.188 291.159 690.188V674.188C263.624 674.188 238.935 670.035 216.99 661.864L211.407 676.858ZM291.159 690.188C321.499 690.188 348.433 685.676 371.795 676.433L365.909 661.555C344.806 669.904 319.944 674.188 291.159 674.188V690.188ZM371.837 676.417C395.348 666.961 414.156 653.756 427.872 636.611L415.378 626.616C403.685 641.232 387.311 652.948 365.867 661.572L371.837 676.417ZM427.909 636.565C441.76 618.984 448.784 598.442 449.048 575.267L433.049 575.085C432.824 594.91 426.899 611.993 415.341 626.663L427.909 636.565ZM449.048 575.076C448.783 553.922 442.517 535.858 429.816 521.501L417.832 532.102C427.608 543.153 432.825 557.339 433.049 575.276L449.048 575.076ZM429.866 521.557C417.631 507.46 400.753 496.076 379.657 487.18L373.44 501.923C392.9 510.129 407.54 520.244 417.782 532.045L429.866 521.557ZM379.764 487.226C359.239 478.215 335.352 470.266 308.158 463.344L304.211 478.849C330.768 485.609 353.79 493.297 373.332 501.876L379.764 487.226ZM308.18 463.349L222.79 441.361L218.8 456.855L304.19 478.844L308.18 463.349ZM222.786 441.36C161.834 425.7 114.249 402.118 79.5495 370.96L68.8595 382.864C105.99 416.206 156.132 440.755 218.805 456.856L222.786 441.36ZM79.592 370.998C45.7853 340.201 28.6989 299.329 28.6989 247.545H12.6989C12.6989 303.261 31.2829 348.634 68.8171 382.826L79.592 370.998ZM28.6989 247.545C28.6989 204.861 40.2219 167.804 63.1041 136.049L50.1232 126.695C25.119 161.395 12.6989 201.786 12.6989 247.545H28.6989ZM63.0815 136.08C86.3537 104.11 118.043 79.1802 158.425 61.3648L151.967 46.7261C109.28 65.5584 75.2485 92.1794 50.1458 126.664L63.0815 136.08ZM158.461 61.3488C198.821 43.3056 244.714 34.1932 296.29 34.1932V18.1932C242.809 18.1932 194.639 27.6489 151.931 46.742L158.461 61.3488ZM296.29 34.1932C348.625 34.1932 394.101 43.3143 432.92 61.3039L439.648 46.7869C398.331 27.6401 350.478 18.1932 296.29 18.1932V34.1932ZM432.974 61.3283C472.129 79.1263 502.593 103.787 524.652 135.233L537.751 126.045C513.879 92.0146 481.064 65.6123 439.595 46.7625L432.974 61.3283ZM524.669 135.256C546.648 166.355 558.044 202.153 558.751 242.92L574.749 242.643C573.99 198.875 561.687 159.912 537.735 126.022L524.669 135.256ZM566.75 234.781H435.918V250.781H566.75V234.781ZM692.36 787H684.36V795H692.36V787ZM692.36 224.091V216.091H684.36V224.091H692.36ZM825.025 224.091H833.025V216.091H825.025V224.091ZM825.025 787V795H833.025V787H825.025ZM704.82 123.31L699.355 129.152L699.38 129.176L699.406 129.199L704.82 123.31ZM704.82 21.4289L710.235 27.3183L710.26 27.2948L710.286 27.2711L704.82 21.4289ZM813.298 21.4289L807.785 27.2266L807.834 27.2728L807.883 27.3183L813.298 21.4289ZM813.298 123.31L818.76 129.155L818.763 129.152L813.298 123.31ZM700.36 787V224.091H684.36V787H700.36ZM692.36 232.091H825.025V216.091H692.36V232.091ZM817.025 224.091V787H833.025V224.091H817.025ZM825.025 779H692.36V795H825.025V779ZM759.059 136.199C740.006 136.199 723.872 129.958 710.235 117.42L699.406 129.199C716.064 144.514 736.089 152.199 759.059 152.199V136.199ZM710.286 117.467C696.667 104.728 690.099 89.8276 690.099 72.3693H674.099C674.099 94.4905 682.678 113.551 699.355 129.152L710.286 117.467ZM690.099 72.3693C690.099 54.6414 696.684 39.776 710.235 27.3183L699.406 15.5396C682.661 30.9341 674.099 50.029 674.099 72.3693H690.099ZM710.286 27.2711C723.93 14.507 740.048 8.17327 759.059 8.17327V-7.82673C736.047 -7.82673 716.006 0.00999557 699.355 15.5868L710.286 27.2711ZM759.059 8.17327C778.339 8.17327 794.423 14.5218 807.785 27.2266L818.81 15.6313C802.365 -0.00485327 782.29 -7.82673 759.059 -7.82673V8.17327ZM807.883 27.3183C821.434 39.776 828.019 54.6414 828.019 72.3693H844.019C844.019 50.029 835.457 30.9341 818.712 15.5396L807.883 27.3183ZM828.019 72.3693C828.019 89.8276 821.451 104.728 807.832 117.467L818.763 129.152C835.44 113.551 844.019 94.4905 844.019 72.3693H828.019ZM807.836 117.464C794.481 129.943 778.381 136.199 759.059 136.199V152.199C782.248 152.199 802.307 144.529 818.76 129.155L807.836 117.464ZM961.446 787H953.446V795H961.446V787ZM961.446 224.091V216.091H953.446V224.091H961.446ZM1088.25 224.091H1096.25V216.091H1088.25V224.091ZM1088.25 319.741H1080.25V327.741H1088.25V319.741ZM1094.84 319.741V327.741H1100.45L1102.36 322.475L1094.84 319.741ZM1153.11 244.247L1157.55 250.904L1157.57 250.89L1157.59 250.876L1153.11 244.247ZM1346.61 244.614L1341.98 251.136L1342.02 251.16L1342.05 251.185L1346.61 244.614ZM1402.32 319.741L1394.74 322.306L1396.58 327.741H1402.32V319.741ZM1408.18 319.741V327.741H1413.61L1415.61 322.703L1408.18 319.741ZM1471.22 244.98L1475.47 251.755L1475.48 251.75L1475.49 251.745L1471.22 244.98ZM1753.04 787V795H1761.04V787H1753.04ZM1620.01 787H1612.01V795H1620.01V787ZM1592.15 353.091L1586.86 359.092L1586.89 359.112L1586.91 359.131L1592.15 353.091ZM1448.86 358.588L1442.92 353.228L1442.92 353.232L1448.86 358.588ZM1422.11 787V795H1430.11V787H1422.11ZM1292.01 787H1284.01V795H1292.01V787ZM1265.62 354.557L1259.97 360.214L1259.99 360.233L1260.01 360.253L1265.62 354.557ZM1145.42 343.196L1149.58 350.028L1149.62 350.004L1149.66 349.98L1145.42 343.196ZM1108.04 383.875L1115.09 387.65L1115.1 387.63L1115.11 387.609L1108.04 383.875ZM1094.11 787V795H1102.11V787H1094.11ZM969.446 787V224.091H953.446V787H969.446ZM961.446 232.091H1088.25V216.091H961.446V232.091ZM1080.25 224.091V319.741H1096.25V224.091H1080.25ZM1088.25 327.741H1094.84V311.741H1088.25V327.741ZM1102.36 322.475C1113.54 291.738 1131.93 267.985 1157.55 250.904L1148.68 237.591C1120.06 256.668 1099.6 283.245 1087.33 317.008L1102.36 322.475ZM1157.59 250.876C1183.2 233.574 1213.96 224.761 1250.23 224.761V208.761C1211.25 208.761 1177.27 218.272 1148.63 237.618L1157.59 250.876ZM1250.23 224.761C1287 224.761 1317.43 233.699 1341.98 251.136L1351.25 238.091C1323.51 218.391 1289.68 208.761 1250.23 208.761V224.761ZM1342.05 251.185C1366.96 268.486 1384.51 292.093 1394.74 322.306L1409.9 317.177C1398.62 283.867 1379.04 257.389 1351.18 238.043L1342.05 251.185ZM1402.32 327.741H1408.18V311.741H1402.32V327.741ZM1415.61 322.703C1427.42 293.067 1447.29 269.456 1475.47 251.755L1466.96 238.206C1436.02 257.64 1413.86 283.871 1400.75 316.78L1415.61 322.703ZM1475.49 251.745C1503.82 233.86 1537.6 224.761 1577.13 224.761V208.761C1535.06 208.761 1498.22 218.475 1466.95 238.215L1475.49 251.745ZM1577.13 224.761C1627.08 224.761 1667.22 240.472 1698.27 271.526L1709.59 260.212C1675.16 225.789 1630.77 208.761 1577.13 208.761V224.761ZM1698.27 271.526C1729.04 302.293 1745.04 347.718 1745.04 409.162H1761.04C1761.04 345.026 1744.3 294.923 1709.59 260.212L1698.27 271.526ZM1745.04 409.162V787H1761.04V409.162H1745.04ZM1753.04 779H1620.01V795H1753.04V779ZM1628.01 787V429.685H1612.01V787H1628.01ZM1628.01 429.685C1628.01 393.436 1618.36 365.25 1597.4 347.051L1586.91 359.131C1603.09 373.182 1612.01 396.058 1612.01 429.685H1628.01ZM1597.44 347.09C1577.28 329.318 1552.63 320.537 1523.99 320.537V336.537C1549.1 336.537 1569.89 344.125 1586.86 359.092L1597.44 347.09ZM1523.99 320.537C1490.18 320.537 1462.8 331.2 1442.92 353.228L1454.8 363.948C1471.08 345.908 1493.79 336.537 1523.99 336.537V320.537ZM1442.92 353.232C1423.51 374.765 1414.11 402.577 1414.11 435.915H1430.11C1430.11 405.73 1438.54 381.991 1454.8 363.944L1442.92 353.232ZM1414.11 435.915V787H1430.11V435.915H1414.11ZM1422.11 779H1292.01V795H1422.11V779ZM1300.01 787V424.188H1284.01V787H1300.01ZM1300.01 424.188C1300.01 393.381 1290.62 367.975 1271.24 348.861L1260.01 360.253C1275.8 375.832 1284.01 396.846 1284.01 424.188H1300.01ZM1271.28 348.9C1252.21 329.832 1227.34 320.537 1197.46 320.537V336.537C1223.77 336.537 1244.34 344.589 1259.97 360.214L1271.28 348.9ZM1197.46 320.537C1176.95 320.537 1158.13 325.817 1141.18 336.412L1149.66 349.98C1163.98 341.029 1179.85 336.537 1197.46 336.537V320.537ZM1141.25 336.364C1124.28 346.708 1110.86 361.388 1100.96 380.141L1115.11 387.609C1123.78 371.181 1135.28 358.741 1149.58 350.028L1141.25 336.364ZM1100.98 380.1C1090.98 398.8 1086.11 420.42 1086.11 444.71H1102.11C1102.11 422.58 1106.53 403.643 1115.09 387.65L1100.98 380.1ZM1086.11 444.71V787H1102.11V444.71H1086.11ZM1094.11 779H961.446V795H1094.11V779ZM1893.49 787H1885.49V795H1893.49V787ZM1893.49 36.4545V28.4545H1885.49V36.4545H1893.49ZM2026.15 36.4545H2034.15V28.4545H2026.15V36.4545ZM2026.15 317.176H2018.15V325.176H2026.15V317.176ZM2031.65 317.176V325.176H2036.6L2038.81 320.754L2031.65 317.176ZM2060.6 273.565L2066.82 278.599L2066.84 278.575L2066.86 278.551L2060.6 273.565ZM2111.18 233.619L2114.85 240.725L2114.88 240.708L2114.92 240.692L2111.18 233.619ZM2310.17 250.111L2305.88 256.86L2305.91 256.878L2305.93 256.895L2310.17 250.111ZM2393.73 347.96L2386.5 351.39L2386.52 351.415L2386.53 351.439L2393.73 347.96ZM2394.46 663.864L2387.22 660.467L2387.22 660.467L2394.46 663.864ZM2311.64 762.812L2316 769.519L2316 769.519L2311.64 762.812ZM2112.64 780.77L2109.03 787.909L2109.03 787.909L2112.64 780.77ZM2061.34 741.923L2055.17 747.016L2055.21 747.069L2055.25 747.122L2061.34 741.923ZM2031.65 698.312L2038.76 694.634L2036.52 690.312H2031.65V698.312ZM2023.96 698.312V690.312H2015.96V698.312H2023.96ZM2023.96 787V795H2031.96V787H2023.96ZM2038.98 601.196L2031.49 604.005L2031.5 604.034L2031.51 604.063L2038.98 601.196ZM2084.06 665.33L2079.11 671.615L2079.15 671.649L2079.2 671.682L2084.06 665.33ZM2229.55 664.597L2234.51 670.874L2234.53 670.855L2234.56 670.836L2229.55 664.597ZM2274.26 599.73L2266.76 596.943L2266.75 596.961L2266.75 596.98L2274.26 599.73ZM2274.63 412.46L2282.13 409.688L2282.13 409.688L2274.63 412.46ZM2229.92 348.693L2234.83 342.378L2234.83 342.378L2229.92 348.693ZM2083.69 347.96L2078.88 341.57L2078.88 341.57L2083.69 347.96ZM2038.61 410.628L2031.14 407.774L2031.13 407.804L2031.12 407.834L2038.61 410.628ZM1901.49 787V36.4545H1885.49V787H1901.49ZM1893.49 44.4545H2026.15V28.4545H1893.49V44.4545ZM2018.15 36.4545V317.176H2034.15V36.4545H2018.15ZM2026.15 325.176H2031.65V309.176H2026.15V325.176ZM2038.81 320.754C2045.33 307.715 2054.62 293.665 2066.82 278.599L2054.39 268.532C2041.66 284.25 2031.66 299.273 2024.5 313.598L2038.81 320.754ZM2066.86 278.551C2078.49 263.951 2094.4 251.302 2114.85 240.725L2107.5 226.514C2085.44 237.925 2067.63 251.907 2054.35 268.58L2066.86 278.551ZM2114.92 240.692C2134.67 230.246 2160.39 224.761 2192.53 224.761V208.761C2158.71 208.761 2130.19 214.515 2107.44 226.547L2114.92 240.692ZM2192.53 224.761C2234.58 224.761 2272.29 235.486 2305.88 256.86L2314.47 243.361C2278.18 220.27 2237.46 208.761 2192.53 208.761V224.761ZM2305.93 256.895C2339.63 277.955 2366.53 309.309 2386.5 351.39L2400.96 344.53C2379.88 300.123 2351.08 266.244 2314.41 243.327L2305.93 256.895ZM2386.53 351.439C2406.63 393.072 2416.88 444.58 2416.88 506.278H2432.88C2432.88 442.886 2422.36 388.848 2400.93 344.481L2386.53 351.439ZM2416.88 506.278C2416.88 567.249 2406.88 618.55 2387.22 660.467L2401.71 667.26C2422.61 622.688 2432.88 568.933 2432.88 506.278H2416.88ZM2387.22 660.467C2367.48 702.563 2340.79 734.311 2307.28 756.106L2316 769.519C2352.36 745.871 2380.89 711.653 2401.71 667.26L2387.22 660.467ZM2307.28 756.106C2273.72 777.931 2235.67 788.895 2192.9 788.895V804.895C2238.57 804.895 2279.69 793.137 2316 769.519L2307.28 756.106ZM2192.9 788.895C2161.48 788.895 2136.07 783.651 2116.25 773.631L2109.03 787.909C2131.73 799.389 2159.82 804.895 2192.9 804.895V788.895ZM2116.25 773.631C2095.76 763.267 2079.56 750.928 2067.42 736.725L2055.25 747.122C2069.01 763.214 2087.01 776.773 2109.03 787.909L2116.25 773.631ZM2067.51 736.831C2055.06 721.755 2045.52 707.69 2038.76 694.634L2024.55 701.991C2031.96 716.298 2042.2 731.308 2055.17 747.016L2067.51 736.831ZM2031.65 690.312H2023.96V706.312H2031.65V690.312ZM2015.96 698.312V787H2031.96V698.312H2015.96ZM2023.96 779H1893.49V795H2023.96V779ZM2015.59 505.545C2015.59 542.681 2020.82 575.553 2031.49 604.005L2046.47 598.387C2036.62 572.112 2031.59 541.216 2031.59 505.545H2015.59ZM2031.51 604.063C2042.44 632.53 2058.24 655.183 2079.11 671.615L2089.01 659.044C2070.78 644.692 2056.53 624.589 2046.45 598.329L2031.51 604.063ZM2079.2 671.682C2100.56 688.033 2126.27 696.051 2155.89 696.051V680.051C2129.31 680.051 2107.14 672.922 2088.92 658.977L2079.2 671.682ZM2155.89 696.051C2186.7 696.051 2213.08 687.802 2234.51 670.874L2224.59 658.32C2206.43 672.664 2183.71 680.051 2155.89 680.051V696.051ZM2234.56 670.836C2255.64 653.914 2271.33 631.007 2281.77 602.48L2266.75 596.98C2257.16 623.181 2243.03 643.518 2224.54 658.357L2234.56 670.836ZM2281.76 602.517C2292.41 573.863 2297.65 541.498 2297.65 505.545H2281.65C2281.65 539.956 2276.63 570.382 2266.76 596.943L2281.76 602.517ZM2297.65 505.545C2297.65 469.853 2292.54 437.858 2282.13 409.688L2267.12 415.232C2276.75 441.301 2281.65 471.362 2281.65 505.545H2297.65ZM2282.13 409.688C2271.68 381.388 2255.97 358.82 2234.83 342.378L2225 355.008C2243.44 369.351 2257.54 389.294 2267.12 415.232L2282.13 409.688ZM2234.83 342.378C2213.39 325.707 2186.9 317.605 2155.89 317.605V333.605C2184 333.605 2206.86 340.895 2225 355.008L2234.83 342.378ZM2155.89 317.605C2126.07 317.605 2100.25 325.475 2078.88 341.57L2088.5 354.351C2106.71 340.639 2129.02 333.605 2155.89 333.605V317.605ZM2078.88 341.57C2057.7 357.516 2041.85 379.724 2031.14 407.774L2046.09 413.481C2055.9 387.781 2070.1 368.211 2088.5 354.351L2078.88 341.57ZM2031.12 407.834C2020.69 435.807 2015.59 468.434 2015.59 505.545H2031.59C2031.59 469.85 2036.5 439.199 2046.11 413.422L2031.12 407.834ZM2640.28 761.713L2636.16 768.573L2636.16 768.573L2640.28 761.713ZM2546.46 660.199L2539.32 663.809L2539.33 663.825L2539.34 663.84L2546.46 660.199ZM2546.46 354.923L2539.33 351.298L2539.32 351.314L2539.31 351.33L2546.46 354.923ZM2640.28 253.043L2644.39 259.903L2644.39 259.903L2640.28 253.043ZM2926.13 253.043L2922.01 259.903L2922.01 259.903L2926.13 253.043ZM3019.58 354.923L3012.43 358.517L3012.44 358.533L3012.45 358.549L3019.58 354.923ZM3019.58 660.199L3012.46 656.557L3012.45 656.573L3012.44 656.589L3019.58 660.199ZM2926.13 761.713L2922.01 754.853L2922.01 754.853L2926.13 761.713ZM2858.7 667.162L2863.76 673.357L2863.78 673.339L2863.81 673.32L2858.7 667.162ZM2903.41 600.463L2895.88 597.756L2895.87 597.785L2895.86 597.814L2903.41 600.463ZM2903.41 413.926L2895.85 416.554L2895.87 416.594L2895.88 416.634L2903.41 413.926ZM2858.7 346.861L2863.81 340.703L2863.81 340.703L2858.7 346.861ZM2707.71 346.861L2702.64 340.672L2702.62 340.688L2702.6 340.703L2707.71 346.861ZM2662.63 413.926L2655.1 411.24L2655.09 411.258L2655.08 411.277L2662.63 413.926ZM2662.63 600.463L2655.08 603.112L2655.1 603.141L2655.11 603.17L2662.63 600.463ZM2707.71 667.162L2702.6 673.32L2702.64 673.354L2702.69 673.387L2707.71 667.162ZM2783.2 789.994C2729.43 789.994 2683.27 778.176 2644.39 754.853L2636.16 768.573C2677.92 793.625 2727.03 805.994 2783.2 805.994V789.994ZM2644.39 754.853C2605.42 731.467 2575.16 698.767 2553.58 656.557L2539.34 663.84C2562.22 708.608 2594.51 743.584 2636.16 768.573L2644.39 754.853ZM2553.6 656.589C2532.28 614.416 2521.48 564.878 2521.48 507.744H2505.48C2505.48 566.906 2516.67 619.004 2539.32 663.809L2553.6 656.589ZM2521.48 507.744C2521.48 450.612 2532.28 400.944 2553.61 358.517L2539.31 351.33C2516.67 396.369 2505.48 448.582 2505.48 507.744H2521.48ZM2553.59 358.549C2575.17 316.095 2605.43 283.282 2644.39 259.903L2636.16 246.183C2594.5 271.178 2562.21 306.286 2539.33 351.298L2553.59 358.549ZM2644.39 259.903C2683.27 236.579 2729.43 224.761 2783.2 224.761V208.761C2727.03 208.761 2677.92 221.131 2636.16 246.183L2644.39 259.903ZM2783.2 224.761C2836.97 224.761 2883.14 236.579 2922.01 259.903L2930.25 246.183C2888.49 221.131 2839.38 208.761 2783.2 208.761V224.761ZM2922.01 259.903C2960.97 283.277 2991.1 316.079 3012.43 358.517L3026.73 351.33C3004.09 306.301 2971.91 271.183 2930.25 246.183L2922.01 259.903ZM3012.45 358.549C3034.02 400.968 3044.93 450.624 3044.93 507.744H3060.93C3060.93 448.569 3049.61 396.344 3026.71 351.298L3012.45 358.549ZM3044.93 507.744C3044.93 564.866 3034.02 614.392 3012.46 656.557L3026.71 663.84C3049.61 619.029 3060.93 566.918 3060.93 507.744H3044.93ZM3012.44 656.589C2991.11 698.783 2960.98 731.471 2922.01 754.853L2930.25 768.573C2971.9 743.58 3004.08 708.592 3026.72 663.809L3012.44 656.589ZM2922.01 754.853C2883.14 778.176 2836.97 789.994 2783.2 789.994V805.994C2839.38 805.994 2888.49 793.625 2930.25 768.573L2922.01 754.853ZM2783.94 699.716C2815.29 699.716 2842.08 691.068 2863.76 673.357L2853.64 660.967C2835.24 675.995 2812.19 683.716 2783.94 683.716V699.716ZM2863.81 673.32C2885.1 655.661 2900.77 632.146 2910.96 603.112L2895.86 597.814C2886.5 624.485 2872.37 645.436 2853.59 661.004L2863.81 673.32ZM2910.94 603.17C2921.31 574.326 2926.43 542.364 2926.43 507.378H2910.43C2910.43 540.801 2905.54 570.895 2895.88 597.756L2910.94 603.17ZM2926.43 507.378C2926.43 472.154 2921.31 440.069 2910.94 411.219L2895.88 416.634C2905.54 443.488 2910.43 473.704 2910.43 507.378H2926.43ZM2910.97 411.298C2900.78 382.024 2885.12 358.375 2863.81 340.703L2853.59 353.019C2872.35 368.574 2886.49 389.635 2895.85 416.554L2910.97 411.298ZM2863.81 340.703C2842.13 322.728 2815.32 313.94 2783.94 313.94V329.94C2812.17 329.94 2835.2 337.766 2853.59 353.019L2863.81 340.703ZM2783.94 313.94C2751.87 313.94 2724.58 322.699 2702.64 340.672L2712.78 353.049C2731.4 337.795 2754.93 329.94 2783.94 329.94V313.94ZM2702.6 340.703C2681.31 358.362 2665.53 381.99 2655.1 411.24L2670.17 416.613C2679.77 389.669 2694.04 368.587 2712.82 353.019L2702.6 340.703ZM2655.08 411.277C2644.97 440.11 2639.97 472.175 2639.97 507.378H2655.97C2655.97 473.683 2660.75 443.447 2670.18 416.575L2655.08 411.277ZM2639.97 507.378C2639.97 542.344 2644.97 574.285 2655.08 603.112L2670.18 597.814C2660.75 570.936 2655.97 540.821 2655.97 507.378H2639.97ZM2655.11 603.17C2665.54 632.18 2681.32 655.673 2702.6 673.32L2712.82 661.004C2694.03 645.423 2679.76 624.45 2670.16 597.756L2655.11 603.17ZM2702.69 673.387C2724.62 691.095 2751.9 699.716 2783.94 699.716V683.716C2754.9 683.716 2731.35 675.967 2712.74 660.937L2702.69 673.387ZM3298.2 36.4545H3306.2V28.4545H3298.2V36.4545ZM3298.2 787V795H3306.2V787H3298.2ZM3165.53 787H3157.53V795H3165.53V787ZM3165.53 36.4545V28.4545H3157.53V36.4545H3165.53ZM3290.2 36.4545V787H3306.2V36.4545H3290.2ZM3298.2 779H3165.53V795H3298.2V779ZM3173.53 787V36.4545H3157.53V787H3173.53ZM3165.53 44.4545H3298.2V28.4545H3165.53V44.4545ZM3537.23 761.713L3533.12 768.573L3533.12 768.573L3537.23 761.713ZM3443.41 660.199L3436.27 663.809L3436.28 663.825L3436.29 663.84L3443.41 660.199ZM3443.41 354.923L3436.28 351.298L3436.27 351.314L3436.27 351.33L3443.41 354.923ZM3537.23 253.043L3541.35 259.903L3541.35 259.903L3537.23 253.043ZM3823.08 253.043L3818.97 259.903L3818.97 259.903L3823.08 253.043ZM3916.54 354.923L3909.39 358.517L3909.4 358.533L3909.4 358.549L3916.54 354.923ZM3916.54 660.199L3909.41 656.557L3909.4 656.573L3909.4 656.589L3916.54 660.199ZM3823.08 761.713L3818.97 754.853L3818.97 754.853L3823.08 761.713ZM3755.65 667.162L3760.71 673.357L3760.74 673.339L3760.76 673.32L3755.65 667.162ZM3800.36 600.463L3792.83 597.756L3792.82 597.785L3792.81 597.814L3800.36 600.463ZM3800.36 413.926L3792.81 416.554L3792.82 416.594L3792.83 416.634L3800.36 413.926ZM3755.65 346.861L3760.76 340.703L3760.76 340.703L3755.65 346.861ZM3604.66 346.861L3599.59 340.672L3599.57 340.688L3599.56 340.703L3604.66 346.861ZM3559.59 413.926L3552.05 411.24L3552.04 411.258L3552.04 411.277L3559.59 413.926ZM3559.59 600.463L3552.04 603.112L3552.05 603.141L3552.06 603.17L3559.59 600.463ZM3604.66 667.162L3599.56 673.32L3599.6 673.354L3599.64 673.387L3604.66 667.162ZM3680.16 789.994C3626.39 789.994 3580.22 778.176 3541.35 754.853L3533.12 768.573C3574.87 793.625 3623.98 805.994 3680.16 805.994V789.994ZM3541.35 754.853C3502.37 731.467 3472.12 698.767 3450.54 656.557L3436.29 663.84C3459.18 708.608 3491.47 743.584 3533.12 768.573L3541.35 754.853ZM3450.55 656.589C3429.23 614.416 3418.43 564.878 3418.43 507.744H3402.43C3402.43 566.906 3413.62 619.004 3436.27 663.809L3450.55 656.589ZM3418.43 507.744C3418.43 450.612 3429.23 400.944 3450.56 358.517L3436.27 351.33C3413.62 396.369 3402.43 448.582 3402.43 507.744H3418.43ZM3450.54 358.549C3472.13 316.095 3502.38 283.282 3541.35 259.903L3533.12 246.183C3491.46 271.178 3459.17 306.286 3436.28 351.298L3450.54 358.549ZM3541.35 259.903C3580.22 236.579 3626.39 224.761 3680.16 224.761V208.761C3623.98 208.761 3574.87 221.131 3533.12 246.183L3541.35 259.903ZM3680.16 224.761C3733.93 224.761 3780.1 236.579 3818.97 259.903L3827.2 246.183C3785.45 221.131 3736.33 208.761 3680.16 208.761V224.761ZM3818.97 259.903C3857.93 283.277 3888.05 316.079 3909.39 358.517L3923.68 351.33C3901.04 306.301 3868.87 271.183 3827.2 246.183L3818.97 259.903ZM3909.4 358.549C3930.97 400.968 3941.88 450.624 3941.88 507.744H3957.88C3957.88 448.569 3946.57 396.344 3923.67 351.298L3909.4 358.549ZM3941.88 507.744C3941.88 564.866 3930.97 614.392 3909.41 656.557L3923.66 663.84C3946.57 619.029 3957.88 566.918 3957.88 507.744H3941.88ZM3909.4 656.589C3888.06 698.783 3857.94 731.471 3818.97 754.853L3827.2 768.573C3868.86 743.58 3901.03 708.592 3923.67 663.809L3909.4 656.589ZM3818.97 754.853C3780.1 778.176 3733.93 789.994 3680.16 789.994V805.994C3736.33 805.994 3785.45 793.625 3827.2 768.573L3818.97 754.853ZM3680.89 699.716C3712.25 699.716 3739.04 691.068 3760.71 673.357L3750.59 660.967C3732.2 675.995 3709.15 683.716 3680.89 683.716V699.716ZM3760.76 673.32C3782.05 655.661 3797.72 632.146 3807.91 603.112L3792.81 597.814C3783.46 624.485 3769.32 645.436 3750.55 661.004L3760.76 673.32ZM3807.89 603.17C3818.26 574.326 3823.39 542.364 3823.39 507.378H3807.39C3807.39 540.801 3802.49 570.895 3792.83 597.756L3807.89 603.17ZM3823.39 507.378C3823.39 472.154 3818.27 440.069 3807.89 411.219L3792.83 416.634C3802.49 443.488 3807.39 473.704 3807.39 507.378H3823.39ZM3807.92 411.298C3797.74 382.024 3782.07 358.375 3760.76 340.703L3750.55 353.019C3769.3 368.574 3783.44 389.635 3792.81 416.554L3807.92 411.298ZM3760.76 340.703C3739.08 322.728 3712.28 313.94 3680.89 313.94V329.94C3709.12 329.94 3732.15 337.766 3750.55 353.019L3760.76 340.703ZM3680.89 313.94C3648.82 313.94 3621.53 322.699 3599.59 340.672L3609.73 353.049C3628.35 337.795 3651.88 329.94 3680.89 329.94V313.94ZM3599.56 340.703C3578.26 358.362 3562.48 381.99 3552.05 411.24L3567.12 416.613C3576.73 389.669 3591 368.587 3609.77 353.019L3599.56 340.703ZM3552.04 411.277C3541.92 440.11 3536.93 472.175 3536.93 507.378H3552.93C3552.93 473.683 3557.71 443.447 3567.14 416.575L3552.04 411.277ZM3536.93 507.378C3536.93 542.344 3541.92 574.285 3552.04 603.112L3567.14 597.814C3557.7 570.936 3552.93 540.821 3552.93 507.378H3536.93ZM3552.06 603.17C3562.49 632.18 3578.28 655.673 3599.56 673.32L3609.77 661.004C3590.98 645.423 3576.72 624.45 3567.11 597.756L3552.06 603.17ZM3599.64 673.387C3621.58 691.095 3648.85 699.716 3680.89 699.716V683.716C3651.85 683.716 3628.31 675.967 3609.69 660.937L3599.64 673.387Z" fill="white"/>
</svg>
