<svg width="1194" height="799" viewBox="0 0 1194 799" fill="none" xmlns="http://www.w3.org/2000/svg">
<g clip-path="url(#clip0_166_79)">
<path d="M117.918 235.781L110.957 236.525L111.626 242.781H117.918V235.781ZM74.6733 161.02L70.6256 166.731L70.6386 166.74L70.6517 166.749L74.6733 161.02ZM-96.4716 147.094L-93.7517 153.544L-93.7517 153.544L-96.4716 147.094ZM-143.014 181.909L-148.659 177.769L-148.659 177.77L-143.014 181.909ZM-159.506 232.116L-166.505 232.026L-166.506 232.071V232.116H-159.506ZM-148.878 272.795L-154.835 276.471L-154.807 276.517L-154.778 276.562L-148.878 272.795ZM-119.193 302.114L-122.996 307.991L-122.955 308.017L-122.914 308.043L-119.193 302.114ZM-77.7812 321.903L-80.1221 328.5L-80.1221 328.5L-77.7812 321.903ZM-31.9716 335.463L-30.2738 328.672L-30.312 328.663L-30.3502 328.653L-31.9716 335.463ZM38.3921 353.054L36.6943 359.845L36.7496 359.859L36.8052 359.872L38.3921 353.054ZM120.116 379.807L117.352 386.238L117.363 386.242L117.373 386.247L120.116 379.807ZM190.847 422.318L186.397 427.722L186.412 427.734L186.428 427.747L190.847 422.318ZM225.295 685.449L231.093 689.371L231.1 689.361L231.107 689.351L225.295 685.449ZM127.812 763.509L130.628 769.917L130.637 769.914L130.645 769.91L127.812 763.509ZM-177.83 764.241L-180.556 770.689L-180.549 770.692L-180.543 770.694L-177.83 764.241ZM-278.244 685.082L-284.005 689.058L-283.996 689.072L-283.987 689.086L-278.244 685.082ZM-317.091 558.281V551.281H-324.371L-324.086 558.556L-317.091 558.281ZM-183.327 558.281L-176.346 557.759L-176.831 551.281H-183.327V558.281ZM-159.139 623.514L-153.718 619.086L-153.718 619.086L-159.139 623.514ZM-103.801 662.361L-106.267 668.912L-106.255 668.917L-106.244 668.921L-103.801 662.361ZM50.8523 661.994L53.4273 668.503L53.4458 668.496L53.4642 668.489L50.8523 661.994ZM103.625 624.614L109.091 628.986L109.107 628.966L109.123 628.946L103.625 624.614ZM123.048 568.176L130.048 568.256L130.049 568.172L130.048 568.089L123.048 568.176ZM105.824 519.801L100.537 524.389L100.559 524.414L100.581 524.439L105.824 519.801ZM58.5483 487.551L55.7344 493.961L55.7813 493.981L55.8284 494.001L58.5483 487.551ZM-11.8153 464.097L-13.561 470.875L-13.5515 470.878L-13.5421 470.88L-11.8153 464.097ZM-97.2045 442.108L-95.4589 435.329L-95.4627 435.328L-97.2045 442.108ZM-243.795 369.912L-248.509 375.087L-248.491 375.104L-248.472 375.12L-243.795 369.912ZM-261.386 124.372L-267.046 120.252L-267.056 120.266L-267.066 120.28L-261.386 124.372ZM-162.804 47.0454L-159.978 53.4498L-159.963 53.4429L-159.947 53.4359L-162.804 47.0454ZM118.284 47.0454L115.341 53.3966L115.364 53.4074L115.387 53.418L118.284 47.0454ZM213.202 123.639L207.471 127.659L207.478 127.669L207.485 127.679L213.202 123.639ZM248.75 235.781V242.781H255.872L255.749 235.66L248.75 235.781ZM124.878 235.037C121.252 201.108 105.825 174.334 78.6949 155.29L70.6517 166.749C94.3396 183.376 107.742 206.443 110.957 236.525L124.878 235.037ZM78.721 155.309C52.0572 136.411 17.7778 127.267 -23.5426 127.267V141.267C15.762 141.267 46.9598 149.958 70.6256 166.731L78.721 155.309ZM-23.5426 127.267C-52.5604 127.267 -77.8431 131.641 -99.1915 140.644L-93.7517 153.544C-74.5432 145.444 -51.2066 141.267 -23.5426 141.267V127.267ZM-99.1914 140.644C-120.39 149.583 -137.017 161.894 -148.659 177.769L-137.369 186.049C-127.511 172.606 -113.11 161.707 -93.7517 153.544L-99.1914 140.644ZM-148.659 177.77C-160.303 193.647 -166.243 211.81 -166.505 232.026L-152.506 232.207C-152.28 214.798 -147.226 199.489 -137.369 186.049L-148.659 177.77ZM-166.506 232.116C-166.506 248.841 -162.704 263.717 -154.835 276.471L-142.921 269.12C-149.222 258.908 -152.506 246.665 -152.506 232.116H-166.506ZM-154.778 276.562C-146.862 288.964 -136.222 299.432 -122.996 307.991L-115.39 296.237C-127.084 288.67 -136.235 279.593 -142.977 269.029L-154.778 276.562ZM-122.914 308.043C-109.981 316.157 -95.7086 322.97 -80.1221 328.5L-75.4404 315.306C-90.1493 310.087 -103.484 303.706 -115.473 296.184L-122.914 308.043ZM-80.1221 328.5C-64.7422 333.958 -49.2323 338.549 -33.5929 342.273L-30.3502 328.653C-45.495 325.048 -60.5248 320.599 -75.4404 315.306L-80.1221 328.5ZM-33.6693 342.254L36.6943 359.845L40.0898 346.263L-30.2738 328.672L-33.6693 342.254ZM36.8052 359.872C64.7519 366.377 91.5986 375.166 117.352 386.238L122.881 373.376C96.3502 361.97 68.714 352.925 39.9789 346.236L36.8052 359.872ZM117.373 386.247C143.185 397.241 166.179 411.072 186.397 427.722L195.297 416.915C173.98 399.36 149.821 384.85 122.86 373.367L117.373 386.247ZM186.428 427.747C206.676 444.228 222.667 464.099 234.439 487.409L246.936 481.097C234.277 456.032 217.04 434.612 195.266 416.889L186.428 427.747ZM234.439 487.409C246.072 510.441 252.011 537.661 252.011 569.276H266.011C266.011 535.901 259.735 506.439 246.936 481.097L234.439 487.409ZM252.011 569.276C252.011 611.995 241.116 649.334 219.484 681.546L231.107 689.351C254.429 654.621 266.011 614.511 266.011 569.276H252.011ZM219.497 681.527C197.867 713.502 166.484 738.74 124.98 757.107L130.645 769.91C174.164 750.652 207.769 723.85 231.093 689.371L219.497 681.527ZM124.997 757.1C83.842 775.179 33.6712 784.361 -25.7415 784.361V798.361C35.0504 798.361 87.2489 788.974 130.628 769.917L124.997 757.1ZM-25.7415 784.361C-83.4284 784.361 -133.162 775.428 -175.116 757.789L-180.543 770.694C-136.497 789.214 -84.8386 798.361 -25.7415 798.361V784.361ZM-175.103 757.794C-216.766 740.177 -249.142 714.585 -272.502 681.079L-283.987 689.086C-258.971 724.966 -224.404 752.147 -180.556 770.689L-175.103 757.794ZM-272.483 681.106C-295.544 647.692 -308.184 606.768 -310.096 558.007L-324.086 558.556C-322.089 609.476 -308.831 653.087 -284.005 689.058L-272.483 681.106ZM-317.091 565.281H-183.327V551.281H-317.091V565.281ZM-190.307 558.803C-188.264 586.126 -179.786 609.305 -164.56 627.943L-153.718 619.086C-166.834 603.031 -174.48 582.721 -176.346 557.759L-190.307 558.803ZM-164.56 627.943C-149.544 646.325 -130.043 659.964 -106.267 668.912L-101.336 655.809C-123.002 647.655 -140.393 635.397 -153.718 619.086L-164.56 627.943ZM-106.244 668.921C-82.3844 677.805 -55.8873 682.188 -26.8409 682.188V668.188C-54.4764 668.188 -79.2861 664.019 -101.359 655.801L-106.244 668.921ZM-26.8409 682.188C3.40166 682.188 30.206 677.69 53.4273 668.503L48.2772 655.485C27.0327 663.89 2.04155 668.188 -26.8409 668.188V682.188ZM53.4642 668.489C76.8455 659.085 95.5015 645.973 109.091 628.986L98.1589 620.241C86.3394 635.015 69.8136 646.824 48.2404 655.5L53.4642 668.489ZM109.123 628.946C122.831 611.547 129.787 591.221 130.048 568.256L116.049 568.097C115.821 588.131 109.828 605.43 98.1266 620.282L109.123 628.946ZM130.048 568.089C129.786 547.136 123.585 529.314 111.067 515.163L100.581 524.439C110.54 535.697 115.822 550.125 116.049 568.264L130.048 568.089ZM111.11 515.213C98.9999 501.259 82.2626 489.954 61.2682 481.101L55.8284 494.001C75.3908 502.25 90.1706 512.445 100.537 524.389L111.11 515.213ZM61.3622 481.142C40.8982 472.157 17.0651 464.225 -10.0886 457.313L-13.5421 470.88C13.0543 477.65 36.1302 485.354 55.7344 493.961L61.3622 481.142ZM-10.0697 457.318L-95.4589 435.329L-98.9501 448.887L-13.561 470.875L-10.0697 457.318ZM-95.4627 435.328C-156.523 419.641 -204.267 395.999 -239.119 364.704L-248.472 375.12C-211.494 408.325 -161.512 432.814 -98.9464 448.888L-95.4627 435.328ZM-239.081 364.737C-273.121 333.728 -290.301 292.575 -290.301 240.545H-304.301C-304.301 296.016 -285.811 341.107 -248.509 375.087L-239.081 364.737ZM-290.301 240.545C-290.301 197.669 -278.722 160.403 -255.707 128.464L-267.066 120.28C-291.937 154.795 -304.301 194.979 -304.301 240.545H-290.301ZM-255.727 128.492C-232.34 96.3647 -200.504 71.3289 -159.978 53.4498L-165.629 40.641C-208.172 59.4097 -242.057 85.9251 -267.046 120.252L-255.727 128.492ZM-159.947 53.4359C-119.44 35.327 -73.4054 26.1932 -21.7102 26.1932V12.1932C-75.0719 12.1932 -123.099 21.6275 -165.661 40.6549L-159.947 53.4359ZM-21.7102 26.1932C30.7406 26.1932 76.3652 35.3347 115.341 53.3966L121.227 40.6942C80.0667 21.6198 32.3618 12.1932 -21.7102 12.1932V26.1932ZM115.387 53.418C154.688 71.2817 185.298 96.0508 207.471 127.659L218.932 119.619C195.174 85.7503 162.506 59.4569 121.181 40.6729L115.387 53.418ZM207.485 127.679C229.588 158.953 241.041 194.949 241.751 235.903L255.749 235.66C254.993 192.08 242.747 153.314 218.918 119.599L207.485 127.679ZM248.75 228.781H117.918V242.781H248.75V228.781ZM374.36 780H367.36V787H374.36V780ZM374.36 217.091V210.091H367.36V217.091H374.36ZM507.025 217.091H514.025V210.091H507.025V217.091ZM507.025 780V787H514.025V780H507.025ZM386.82 116.31L382.038 121.422L382.06 121.442L382.083 121.463L386.82 116.31ZM386.82 14.4289L391.558 19.5821L391.58 19.5616L391.602 19.5408L386.82 14.4289ZM495.298 14.4289L490.474 19.5018L490.517 19.5423L490.56 19.5821L495.298 14.4289ZM495.298 116.31L500.077 121.424L500.08 121.422L495.298 116.31ZM381.36 780V217.091H367.36V780H381.36ZM374.36 224.091H507.025V210.091H374.36V224.091ZM500.025 217.091V780H514.025V217.091H500.025ZM507.025 773H374.36V787H507.025V773ZM441.059 130.199C421.761 130.199 405.384 123.867 391.558 111.156L382.083 121.463C398.552 136.604 418.334 144.199 441.059 144.199V130.199ZM391.602 111.198C377.793 98.2791 371.099 83.119 371.099 65.3693H357.099C357.099 87.1991 365.552 105.999 382.038 121.422L391.602 111.198ZM371.099 65.3693C371.099 47.3532 377.808 32.2234 391.558 19.5821L382.083 9.27576C365.537 24.4868 357.099 43.3172 357.099 65.3693H371.099ZM391.602 19.5408C405.435 6.60092 421.798 0.173273 441.059 0.173273V-13.8267C418.297 -13.8267 398.501 -6.08394 382.038 9.31702L391.602 19.5408ZM441.059 0.173273C460.586 0.173273 476.92 6.61392 490.474 19.5018L500.121 9.356C483.869 -6.09694 464.043 -13.8267 441.059 -13.8267V0.173273ZM490.56 19.5821C504.31 32.2234 511.019 47.3532 511.019 65.3693H525.019C525.019 43.3172 516.58 24.4868 500.035 9.27576L490.56 19.5821ZM511.019 65.3693C511.019 83.119 504.325 98.2791 490.515 111.198L500.08 121.422C516.566 105.999 525.019 87.1991 525.019 65.3693H511.019ZM490.518 111.195C476.97 123.855 460.623 130.199 441.059 130.199V144.199C464.007 144.199 483.818 136.617 500.077 121.424L490.518 111.195ZM643.446 780H636.446V787H643.446V780ZM643.446 217.091V210.091H636.446V217.091H643.446ZM770.247 217.091H777.247V210.091H770.247V217.091ZM770.247 312.741H763.247V319.741H770.247V312.741ZM776.844 312.741V319.741H781.747L783.422 315.134L776.844 312.741ZM835.114 237.247L838.997 243.071L839.015 243.059L839.033 243.047L835.114 237.247ZM1028.61 237.614L1024.56 243.321L1024.59 243.342L1024.62 243.363L1028.61 237.614ZM1084.32 312.741L1077.69 314.986L1079.3 319.741H1084.32V312.741ZM1090.18 312.741V319.741H1094.93L1096.68 315.332L1090.18 312.741ZM1153.22 237.98L1156.94 243.908L1156.95 243.904L1156.95 243.9L1153.22 237.98ZM1435.04 780V787H1442.04V780H1435.04ZM1302.01 780H1295.01V787H1302.01V780ZM1274.15 346.091L1269.52 351.342L1269.54 351.359L1269.56 351.376L1274.15 346.091ZM1130.86 351.588L1125.66 346.898L1125.66 346.902L1130.86 351.588ZM1104.11 780V787H1111.11V780H1104.11ZM974.009 780H967.009V787H974.009V780ZM947.622 347.557L942.672 352.507L942.69 352.524L942.707 352.541L947.622 347.557ZM827.418 336.196L831.06 342.174L831.094 342.153L831.128 342.132L827.418 336.196ZM790.037 376.875L796.209 380.178L796.218 380.16L796.228 380.142L790.037 376.875ZM776.111 780V787H783.111V780H776.111ZM650.446 780V217.091H636.446V780H650.446ZM643.446 224.091H770.247V210.091H643.446V224.091ZM763.247 217.091V312.741H777.247V217.091H763.247ZM770.247 319.741H776.844V305.741H770.247V319.741ZM783.422 315.134C794.668 284.207 813.187 260.278 838.997 243.071L831.231 231.423C802.802 250.375 782.474 276.776 770.265 310.349L783.422 315.134ZM839.033 243.047C864.828 225.618 895.787 216.761 932.23 216.761V202.761C893.423 202.761 859.638 212.229 831.195 231.447L839.033 243.047ZM932.23 216.761C969.172 216.761 999.812 225.743 1024.56 243.321L1032.67 231.907C1005.13 212.348 971.516 202.761 932.23 202.761V216.761ZM1024.62 243.363C1049.72 260.792 1067.4 284.579 1077.69 314.986L1090.95 310.497C1079.74 277.382 1060.28 251.083 1032.61 231.864L1024.62 243.363ZM1084.32 319.741H1090.18V305.741H1084.32V319.741ZM1096.68 315.332C1108.57 285.492 1128.58 261.718 1156.94 243.908L1149.49 232.052C1118.72 251.379 1096.71 277.445 1083.68 310.15L1096.68 315.332ZM1156.95 243.9C1185.47 225.899 1219.44 216.761 1259.13 216.761V202.761C1217.22 202.761 1180.57 212.437 1149.48 232.061L1156.95 243.9ZM1259.13 216.761C1309.31 216.761 1349.71 232.554 1380.98 263.819L1390.88 253.92C1356.67 219.707 1312.54 202.761 1259.13 202.761V216.761ZM1380.98 263.819C1411.99 294.832 1428.04 340.55 1428.04 402.162H1442.04C1442.04 338.195 1425.34 288.384 1390.88 253.92L1380.98 263.819ZM1428.04 402.162V780H1442.04V402.162H1428.04ZM1435.04 773H1302.01V787H1435.04V773ZM1309.01 780V422.685H1295.01V780H1309.01ZM1309.01 422.685C1309.01 386.6 1299.4 358.745 1278.74 340.806L1269.56 351.376C1286.04 365.686 1295.01 388.894 1295.01 422.685H1309.01ZM1278.78 340.84C1258.82 323.243 1234.41 314.537 1205.99 314.537V328.537C1231.32 328.537 1252.35 336.2 1269.52 351.342L1278.78 340.84ZM1205.99 314.537C1172.4 314.537 1145.32 325.119 1125.66 346.898L1136.06 356.278C1152.56 337.989 1175.56 328.537 1205.99 328.537V314.537ZM1125.66 346.902C1106.45 368.216 1097.11 395.774 1097.11 428.915H1111.11C1111.11 398.533 1119.6 374.539 1136.06 356.274L1125.66 346.902ZM1097.11 428.915V780H1111.11V428.915H1097.11ZM1104.11 773H974.009V787H1104.11V773ZM981.009 780V417.188H967.009V780H981.009ZM981.009 417.188C981.009 386.598 971.697 361.466 952.537 342.573L942.707 352.541C958.729 368.341 967.009 389.63 967.009 417.188H981.009ZM952.572 342.607C933.719 323.754 909.118 314.537 879.457 314.537V328.537C905.99 328.537 926.832 336.666 942.672 352.507L952.572 342.607ZM879.457 314.537C859.135 314.537 840.495 319.768 823.708 330.26L831.128 342.132C845.613 333.079 861.666 328.537 879.457 328.537V314.537ZM823.775 330.218C806.968 340.46 793.667 355 783.846 373.608L796.228 380.142C804.975 363.569 816.594 350.989 831.06 342.174L823.775 330.218ZM783.865 373.572C773.947 392.103 769.111 413.555 769.111 437.71H783.111C783.111 415.445 787.558 396.341 796.209 380.178L783.865 373.572ZM769.111 437.71V780H783.111V437.71H769.111ZM776.111 773H643.446V787H776.111V773ZM1575.49 780H1568.49V787H1575.49V780ZM1575.49 29.4545V22.4545H1568.49V29.4545H1575.49ZM1708.15 29.4545H1715.15V22.4545H1708.15V29.4545ZM1708.15 310.176H1701.15V317.176H1708.15V310.176ZM1713.65 310.176V317.176H1717.98L1719.91 313.307L1713.65 310.176ZM1742.6 266.565L1748.04 270.97L1748.06 270.949L1748.08 270.928L1742.6 266.565ZM1793.18 226.619L1796.39 232.837L1796.42 232.822L1796.45 232.808L1793.18 226.619ZM1992.17 243.111L1988.42 249.016L1988.44 249.032L1988.46 249.047L1992.17 243.111ZM2075.73 340.96L2069.41 343.961L2069.42 343.983L2069.43 344.004L2075.73 340.96ZM2076.46 656.864L2070.13 653.892L2070.13 653.892L2076.46 656.864ZM1993.64 755.812L1997.46 761.681L1997.46 761.681L1993.64 755.812ZM1794.64 773.77L1791.48 780.016L1791.48 780.016L1794.64 773.77ZM1743.34 734.923L1737.94 739.379L1737.98 739.426L1738.02 739.472L1743.34 734.923ZM1713.65 691.312L1719.87 688.094L1717.91 684.312H1713.65V691.312ZM1705.96 691.312V684.312H1698.96V691.312H1705.96ZM1705.96 780V787H1712.96V780H1705.96ZM1720.98 594.196L1714.43 596.654L1714.44 596.679L1714.45 596.705L1720.98 594.196ZM1766.06 658.33L1761.73 663.829L1761.76 663.859L1761.8 663.888L1766.06 658.33ZM1911.55 657.597L1915.89 663.089L1915.91 663.073L1915.93 663.056L1911.55 657.597ZM1956.26 592.73L1949.7 590.291L1949.69 590.308L1949.69 590.324L1956.26 592.73ZM1956.63 405.46L1963.19 403.035L1963.19 403.035L1956.63 405.46ZM1911.92 341.693L1916.21 336.168L1916.21 336.168L1911.92 341.693ZM1765.69 340.96L1761.48 335.369L1761.48 335.369L1765.69 340.96ZM1720.61 403.628L1714.07 401.131L1714.06 401.157L1714.06 401.183L1720.61 403.628ZM1582.49 780V29.4545H1568.49V780H1582.49ZM1575.49 36.4545H1708.15V22.4545H1575.49V36.4545ZM1701.15 29.4545V310.176H1715.15V29.4545H1701.15ZM1708.15 317.176H1713.65V303.176H1708.15V317.176ZM1719.91 313.307C1726.47 300.188 1735.81 286.077 1748.04 270.97L1737.16 262.161C1724.47 277.838 1714.51 292.801 1707.39 307.046L1719.91 313.307ZM1748.08 270.928C1759.82 256.198 1775.84 243.466 1796.39 232.837L1789.96 220.402C1768 231.761 1750.31 245.66 1737.13 262.203L1748.08 270.928ZM1796.45 232.808C1816.39 222.263 1842.29 216.761 1874.53 216.761V202.761C1840.81 202.761 1812.47 208.498 1789.9 220.431L1796.45 232.808ZM1874.53 216.761C1916.76 216.761 1954.66 227.535 1988.42 249.016L1995.93 237.205C1959.81 214.221 1919.28 202.761 1874.53 202.761V216.761ZM1988.46 249.047C2022.35 270.223 2049.37 301.735 2069.41 343.961L2082.05 337.959C2061.05 293.697 2032.37 259.976 1995.88 237.175L1988.46 249.047ZM2069.43 344.004C2089.62 385.808 2099.88 437.474 2099.88 499.278H2113.88C2113.88 435.992 2103.38 382.112 2082.03 337.916L2069.43 344.004ZM2099.88 499.278C2099.88 560.354 2089.86 611.809 2070.13 653.892L2082.8 659.836C2103.62 615.43 2113.88 561.828 2113.88 499.278H2099.88ZM2070.13 653.892C2050.32 696.131 2023.51 728.033 1989.82 749.944L1997.46 761.681C2033.64 738.148 2062.05 704.085 2082.8 659.836L2070.13 653.892ZM1989.82 749.944C1956.09 771.881 1917.85 782.895 1874.9 782.895V796.895C1920.39 796.895 1961.31 785.187 1997.46 761.681L1989.82 749.944ZM1874.9 782.895C1843.38 782.895 1817.79 777.634 1797.8 767.523L1791.48 780.016C1814 791.405 1841.92 796.895 1874.9 796.895V782.895ZM1797.8 767.523C1777.21 757.111 1760.9 744.696 1748.66 730.375L1738.02 739.472C1751.67 755.446 1769.56 768.929 1791.48 780.016L1797.8 767.523ZM1748.73 730.467C1736.26 715.352 1726.67 701.228 1719.87 688.094L1707.44 694.531C1714.8 708.76 1725 723.711 1737.94 739.379L1748.73 730.467ZM1713.65 684.312H1705.96V698.312H1713.65V684.312ZM1698.96 691.312V780H1712.96V691.312H1698.96ZM1705.96 773H1575.49V787H1705.96V773ZM1698.59 498.545C1698.59 535.59 1703.81 568.338 1714.43 596.654L1727.54 591.738C1717.63 565.327 1712.59 534.308 1712.59 498.545H1698.59ZM1714.45 596.705C1725.32 625.034 1741.03 647.528 1761.73 663.829L1770.39 652.83C1752 638.347 1737.65 618.085 1727.52 591.687L1714.45 596.705ZM1761.8 663.888C1782.97 680.089 1808.46 688.051 1837.89 688.051V674.051C1811.12 674.051 1788.73 666.866 1770.31 652.771L1761.8 663.888ZM1837.89 688.051C1868.51 688.051 1894.67 679.856 1915.89 663.089L1907.21 652.104C1888.85 666.61 1865.9 674.051 1837.89 674.051V688.051ZM1915.93 663.056C1936.86 646.264 1952.44 623.517 1962.83 595.136L1949.69 590.324C1940.04 616.67 1925.82 637.168 1907.17 652.137L1915.93 663.056ZM1962.82 595.169C1973.42 566.645 1978.65 534.402 1978.65 498.545H1964.65C1964.65 533.053 1959.62 563.599 1949.7 590.291L1962.82 595.169ZM1978.65 498.545C1978.65 462.948 1973.55 431.074 1963.19 403.035L1950.06 407.886C1959.74 434.085 1964.65 464.268 1964.65 498.545H1978.65ZM1963.19 403.035C1952.79 374.882 1937.18 352.478 1916.21 336.168L1907.62 347.219C1926.23 361.693 1940.42 381.8 1950.06 407.886L1963.19 403.035ZM1916.21 336.168C1894.98 319.656 1868.72 311.605 1837.89 311.605V325.605C1866.18 325.605 1889.27 332.946 1907.62 347.219L1916.21 336.168ZM1837.89 311.605C1808.26 311.605 1782.65 319.423 1761.48 335.369L1769.9 346.552C1788.31 332.691 1810.84 325.605 1837.89 325.605V311.605ZM1761.48 335.369C1740.48 351.185 1724.73 373.228 1714.07 401.131L1727.15 406.125C1737.02 380.278 1751.32 360.543 1769.9 346.552L1761.48 335.369ZM1714.06 401.183C1703.68 429.019 1698.59 461.522 1698.59 498.545H1712.59C1712.59 462.762 1717.51 431.987 1727.17 406.073L1714.06 401.183ZM2322.28 754.713L2318.68 760.716L2318.68 760.716L2322.28 754.713ZM2228.46 653.199L2222.21 656.357L2222.22 656.371L2222.23 656.385L2228.46 653.199ZM2228.46 347.923L2222.22 344.751L2222.21 344.765L2222.21 344.779L2228.46 347.923ZM2322.28 246.043L2325.88 252.045L2325.88 252.045L2322.28 246.043ZM2608.13 246.043L2604.53 252.045L2604.53 252.045L2608.13 246.043ZM2701.58 347.923L2695.33 351.068L2695.34 351.082L2695.34 351.096L2701.58 347.923ZM2701.58 653.199L2695.35 650.012L2695.34 650.026L2695.34 650.04L2701.58 653.199ZM2608.13 754.713L2604.53 748.711L2604.53 748.711L2608.13 754.713ZM2540.7 660.162L2545.13 665.583L2545.15 665.566L2545.17 665.55L2540.7 660.162ZM2585.41 593.463L2578.82 591.094L2578.81 591.12L2578.8 591.145L2585.41 593.463ZM2585.41 406.926L2578.8 409.226L2578.81 409.261L2578.82 409.295L2585.41 406.926ZM2540.7 339.861L2545.17 334.472L2545.17 334.472L2540.7 339.861ZM2389.71 339.861L2385.27 334.446L2385.26 334.459L2385.24 334.472L2389.71 339.861ZM2344.63 406.926L2338.04 404.575L2338.03 404.592L2338.03 404.609L2344.63 406.926ZM2344.63 593.463L2338.03 595.781L2338.04 595.806L2338.05 595.832L2344.63 593.463ZM2389.71 660.162L2385.24 665.55L2385.28 665.58L2385.31 665.609L2389.71 660.162ZM2465.2 783.994C2411.28 783.994 2364.93 772.142 2325.88 748.711L2318.68 760.716C2360.25 785.659 2409.18 797.994 2465.2 797.994V783.994ZM2325.88 748.711C2286.74 725.224 2256.35 692.382 2234.69 650.012L2222.23 656.385C2245.03 700.993 2277.2 735.827 2318.68 760.716L2325.88 748.711ZM2234.71 650.04C2213.3 607.703 2202.48 558.005 2202.48 500.744H2188.48C2188.48 559.779 2199.64 611.718 2222.21 656.357L2234.71 650.04ZM2202.48 500.744C2202.48 443.485 2213.3 393.658 2234.71 351.068L2222.21 344.779C2199.64 389.654 2188.48 441.708 2188.48 500.744H2202.48ZM2234.7 351.096C2256.36 308.482 2286.75 275.525 2325.88 252.045L2318.68 240.04C2277.19 264.935 2245.02 299.899 2222.22 344.751L2234.7 351.096ZM2325.88 252.045C2364.93 228.614 2411.28 216.761 2465.2 216.761V202.761C2409.18 202.761 2360.25 215.096 2318.68 240.04L2325.88 252.045ZM2465.2 216.761C2519.12 216.761 2565.48 228.614 2604.53 252.045L2611.73 240.04C2570.16 215.096 2521.23 202.761 2465.2 202.761V216.761ZM2604.53 252.045C2643.66 275.521 2673.91 308.468 2695.33 351.068L2707.84 344.779C2685.28 299.913 2653.23 264.939 2611.73 240.04L2604.53 252.045ZM2695.34 351.096C2716.99 393.679 2727.93 443.496 2727.93 500.744H2741.93C2741.93 441.697 2730.64 389.633 2707.82 344.751L2695.34 351.096ZM2727.93 500.744C2727.93 557.994 2716.99 607.681 2695.35 650.012L2707.82 656.385C2730.64 611.739 2741.93 559.79 2741.93 500.744H2727.93ZM2695.34 650.04C2673.92 692.396 2643.67 725.228 2604.53 748.711L2611.73 760.716C2653.22 735.823 2685.27 700.979 2707.83 656.357L2695.34 650.04ZM2604.53 748.711C2565.48 772.142 2519.12 783.994 2465.2 783.994V797.994C2521.23 797.994 2570.16 785.659 2611.73 760.716L2604.53 748.711ZM2465.94 691.716C2497.1 691.716 2523.66 683.126 2545.13 665.583L2536.27 654.741C2517.67 669.937 2494.39 677.716 2465.94 677.716V691.716ZM2545.17 665.55C2566.3 648.022 2581.88 624.667 2592.01 595.781L2578.8 591.145C2569.39 617.963 2555.16 639.075 2536.23 654.774L2545.17 665.55ZM2592 595.832C2602.33 567.112 2607.43 535.266 2607.43 500.378H2593.43C2593.43 533.898 2588.53 564.11 2578.82 591.094L2592 595.832ZM2607.43 500.378C2607.43 465.251 2602.33 433.283 2592 404.557L2578.82 409.295C2588.53 436.274 2593.43 466.607 2593.43 500.378H2607.43ZM2592.02 404.626C2581.89 375.5 2566.32 352.012 2545.17 334.472L2536.23 345.249C2555.15 360.937 2569.38 382.159 2578.8 409.226L2592.02 404.626ZM2545.17 334.472C2523.7 316.668 2497.13 307.94 2465.94 307.94V321.94C2494.36 321.94 2517.63 329.826 2536.23 345.249L2545.17 334.472ZM2465.94 307.94C2434.06 307.94 2407 316.643 2385.27 334.446L2394.15 345.276C2412.97 329.851 2436.74 321.94 2465.94 321.94V307.94ZM2385.24 334.472C2364.1 352.001 2348.42 375.47 2338.04 404.575L2351.23 409.277C2360.88 382.189 2375.25 360.948 2394.18 345.249L2385.24 334.472ZM2338.03 404.609C2327.95 433.318 2322.97 465.269 2322.97 500.378H2336.97C2336.97 466.589 2341.77 436.238 2351.24 409.244L2338.03 404.609ZM2322.97 500.378C2322.97 535.249 2327.96 567.076 2338.03 595.781L2351.24 591.145C2341.77 564.146 2336.97 533.916 2336.97 500.378H2322.97ZM2338.05 595.832C2348.43 624.697 2364.12 648.033 2385.24 665.55L2394.18 654.774C2375.23 639.064 2360.87 617.933 2351.22 591.094L2338.05 595.832ZM2385.31 665.609C2407.04 683.15 2434.09 691.716 2465.94 691.716V677.716C2436.71 677.716 2412.93 669.913 2394.11 654.715L2385.31 665.609ZM2980.2 29.4545H2987.2V22.4545H2980.2V29.4545ZM2980.2 780V787H2987.2V780H2980.2ZM2847.53 780H2840.53V787H2847.53V780ZM2847.53 29.4545V22.4545H2840.53V29.4545H2847.53ZM2973.2 29.4545V780H2987.2V29.4545H2973.2ZM2980.2 773H2847.53V787H2980.2V773ZM2854.53 780V29.4545H2840.53V780H2854.53ZM2847.53 36.4545H2980.2V22.4545H2847.53V36.4545ZM3219.23 754.713L3215.63 760.716L3215.63 760.716L3219.23 754.713ZM3125.41 653.199L3119.17 656.357L3119.17 656.371L3119.18 656.385L3125.41 653.199ZM3125.41 347.923L3119.17 344.751L3119.17 344.765L3119.16 344.779L3125.41 347.923ZM3219.23 246.043L3222.83 252.045L3222.83 252.045L3219.23 246.043ZM3505.08 246.043L3501.48 252.045L3501.48 252.045L3505.08 246.043ZM3598.54 347.923L3592.28 351.068L3592.29 351.082L3592.3 351.096L3598.54 347.923ZM3598.54 653.199L3592.3 650.012L3592.3 650.026L3592.29 650.04L3598.54 653.199ZM3505.08 754.713L3501.48 748.711L3501.48 748.711L3505.08 754.713ZM3437.65 660.162L3442.08 665.583L3442.1 665.566L3442.12 665.55L3437.65 660.162ZM3482.36 593.463L3475.78 591.094L3475.77 591.12L3475.76 591.145L3482.36 593.463ZM3482.36 406.926L3475.75 409.226L3475.76 409.261L3475.78 409.295L3482.36 406.926ZM3437.65 339.861L3442.12 334.472L3442.12 334.472L3437.65 339.861ZM3286.66 339.861L3282.23 334.446L3282.21 334.459L3282.2 334.472L3286.66 339.861ZM3241.59 406.926L3234.99 404.575L3234.99 404.592L3234.98 404.609L3241.59 406.926ZM3241.59 593.463L3234.98 595.781L3234.99 595.806L3235 595.832L3241.59 593.463ZM3286.66 660.162L3282.2 665.55L3282.23 665.58L3282.27 665.609L3286.66 660.162ZM3362.16 783.994C3308.24 783.994 3261.89 772.142 3222.83 748.711L3215.63 760.716C3257.2 785.659 3306.13 797.994 3362.16 797.994V783.994ZM3222.83 748.711C3183.69 725.224 3153.31 692.382 3131.65 650.012L3119.18 656.385C3141.99 700.993 3174.15 735.827 3215.63 760.716L3222.83 748.711ZM3131.66 650.04C3110.25 607.703 3099.43 558.005 3099.43 500.744H3085.43C3085.43 559.779 3096.6 611.718 3119.17 656.357L3131.66 650.04ZM3099.43 500.744C3099.43 443.485 3110.25 393.658 3131.67 351.068L3119.16 344.779C3096.6 389.654 3085.43 441.708 3085.43 500.744H3099.43ZM3131.65 351.096C3153.32 308.482 3183.7 275.525 3222.83 252.045L3215.63 240.04C3174.14 264.935 3141.98 299.899 3119.17 344.751L3131.65 351.096ZM3222.83 252.045C3261.89 228.614 3308.24 216.761 3362.16 216.761V202.761C3306.13 202.761 3257.2 215.096 3215.63 240.04L3222.83 252.045ZM3362.16 216.761C3416.08 216.761 3462.43 228.614 3501.48 252.045L3508.69 240.04C3467.11 215.096 3418.18 202.761 3362.16 202.761V216.761ZM3501.48 252.045C3540.61 275.521 3570.86 308.468 3592.28 351.068L3604.79 344.779C3582.23 299.913 3550.18 264.939 3508.69 240.04L3501.48 252.045ZM3592.3 351.096C3613.94 393.679 3624.88 443.496 3624.88 500.744H3638.88C3638.88 441.697 3627.59 389.633 3604.78 344.751L3592.3 351.096ZM3624.88 500.744C3624.88 557.994 3613.94 607.681 3592.3 650.012L3604.77 656.385C3627.59 611.739 3638.88 559.79 3638.88 500.744H3624.88ZM3592.29 650.04C3570.87 692.396 3540.62 725.228 3501.48 748.711L3508.69 760.716C3550.17 735.823 3582.22 700.979 3604.78 656.357L3592.29 650.04ZM3501.48 748.711C3462.43 772.142 3416.08 783.994 3362.16 783.994V797.994C3418.18 797.994 3467.11 785.659 3508.69 760.716L3501.48 748.711ZM3362.89 691.716C3394.05 691.716 3420.61 683.126 3442.08 665.583L3433.22 654.741C3414.63 669.937 3391.34 677.716 3362.89 677.716V691.716ZM3442.12 665.55C3463.26 648.022 3478.83 624.667 3488.97 595.781L3475.76 591.145C3466.35 617.963 3452.11 639.075 3433.18 654.774L3442.12 665.55ZM3488.95 595.832C3499.28 567.112 3504.39 535.266 3504.39 500.378H3490.39C3490.39 533.898 3485.48 564.11 3475.78 591.094L3488.95 595.832ZM3504.39 500.378C3504.39 465.251 3499.28 433.283 3488.95 404.557L3475.78 409.295C3485.48 436.274 3490.39 466.607 3490.39 500.378H3504.39ZM3488.97 404.626C3478.84 375.5 3463.27 352.012 3442.12 334.472L3433.18 345.249C3452.1 360.937 3466.34 382.159 3475.75 409.226L3488.97 404.626ZM3442.12 334.472C3420.65 316.668 3394.08 307.94 3362.89 307.94V321.94C3391.32 321.94 3414.59 329.826 3433.18 345.249L3442.12 334.472ZM3362.89 307.94C3331.01 307.94 3303.96 316.643 3282.23 334.446L3291.1 345.276C3309.93 329.851 3333.69 321.94 3362.89 321.94V307.94ZM3282.2 334.472C3261.06 352.001 3245.37 375.47 3234.99 404.575L3248.18 409.277C3257.84 382.189 3272.2 360.948 3291.13 345.249L3282.2 334.472ZM3234.98 404.609C3224.91 433.318 3219.93 465.269 3219.93 500.378H3233.93C3233.93 466.589 3238.72 436.238 3248.19 409.244L3234.98 404.609ZM3219.93 500.378C3219.93 535.249 3224.91 567.076 3234.98 595.781L3248.19 591.145C3238.72 564.146 3233.93 533.916 3233.93 500.378H3219.93ZM3235 595.832C3245.38 624.697 3261.07 648.033 3282.2 665.55L3291.13 654.774C3272.19 639.064 3257.83 617.933 3248.17 591.094L3235 595.832ZM3282.27 665.609C3304 683.15 3331.04 691.716 3362.89 691.716V677.716C3333.66 677.716 3309.89 669.913 3291.06 654.715L3282.27 665.609Z" fill="white"/>
</g>
<defs>
<clipPath id="clip0_166_79">
<rect width="1194" height="799" fill="white"/>
</clipPath>
</defs>
</svg>
