<svg width="636" height="573" viewBox="0 0 636 573" fill="none" xmlns="http://www.w3.org/2000/svg">
<path d="M489.68 104.646C365.679 77.1463 341.59 0.0325409 297.68 0.0325623C199.179 0.032624 202.68 131.146 82.5494 148.131C-86.6943 172.059 39.1798 330.146 172.733 482.826C313.915 644.226 396.101 550.521 410.949 491.715C430.179 377.146 478.852 367.836 585.155 280.582C691.459 193.327 613.68 132.146 489.68 104.646Z" fill="#FFAAAA" fill-opacity="0.4"/>
<path d="M231.722 154.097C232.421 158.014 230.743 161.51 229.205 164.867C216.477 191.441 203.33 217.783 189.763 243.894C189.526 244.465 189.165 244.974 188.705 245.386C188.245 245.798 187.698 246.101 187.106 246.273C185.684 246.23 184.293 245.846 183.05 245.154C171.161 239.419 159.134 233.685 147.245 227.806C145.286 226.828 143.189 225.849 142.07 224.171C140.392 221.652 142.07 219.135 143.748 217.317C158.713 200.813 173.817 184.17 188.785 167.666C192.84 163.049 227.667 129.762 231.722 154.097Z" fill="#A82626" stroke="#191515" stroke-miterlimit="10"/>
<path d="M231.722 138.992C232.421 142.909 230.743 146.405 229.205 149.762C216.477 176.335 203.33 202.678 189.763 228.789C189.526 229.359 189.165 229.869 188.705 230.281C188.245 230.693 187.698 230.996 187.106 231.168C185.684 231.125 184.293 230.741 183.05 230.048C171.161 224.313 159.134 218.58 147.245 212.701C145.286 211.723 143.189 210.744 142.07 209.066C140.392 206.547 142.07 204.03 143.748 202.211C158.713 185.708 173.817 169.065 188.785 152.56C192.84 147.943 227.667 114.657 231.722 138.992Z" fill="#CA4343" stroke="#191515" stroke-miterlimit="10"/>
<path d="M206.826 116.616C207.445 116.105 208.1 115.638 208.785 115.218C212.281 113.26 216.338 112.141 219.274 109.623C221.092 107.945 221.653 105.568 223.471 103.888C226.967 100.532 229.904 96.1964 234.659 95.2172C238.296 94.5182 238.855 98.9939 240.114 101.651C241.656 105.288 243.195 108.924 244.73 112.561C245.677 114.368 246.112 116.399 245.988 118.435C245.289 122.772 239.691 125.848 236.618 128.645C232.841 132.002 229.904 137.737 225.288 140.114C224.17 139.555 223.89 138.296 223.051 137.597C221.931 136.617 220.113 136.197 218.855 135.498C216.058 133.956 213.4 132.142 210.603 130.744C207.519 129.344 203.33 127.386 203.19 123.471C203.055 120.671 204.868 118.293 206.826 116.616Z" fill="#CA4343" stroke="#191515" stroke-miterlimit="10"/>
<path d="M219.834 120.25C221.111 119.807 222.507 119.857 223.749 120.39C227.033 121.493 230.006 123.363 232.422 125.845" stroke="#191515" stroke-miterlimit="10"/>
<path d="M231.163 115.775C232.156 119.424 234.084 122.751 236.758 125.426" stroke="#191515" stroke-miterlimit="10"/>
<path d="M205.288 126.544C206.763 126.078 208.359 126.177 209.764 126.824C216.55 129.087 222.304 133.7 225.988 139.831" stroke="#191515" stroke-miterlimit="10"/>
<path d="M303.473 71.2982L303.192 106.264" stroke="#191515" stroke-width="6" stroke-miterlimit="10"/>
<path d="M311.723 71.0194C311.864 75.0749 308.367 78.4326 303.756 78.5713C299.281 78.7114 295.505 75.6338 295.365 71.5784C295.225 67.5229 298.722 64.1652 303.332 64.0264C307.943 63.8876 311.585 66.9627 311.723 71.0194Z" fill="white" stroke="#191515" stroke-miterlimit="10"/>
<path d="M195.638 169.064C210.323 150.046 228.086 133.258 249.345 121.229C265.849 111.859 284.591 106.124 303.892 106.825C367.114 109.062 410.747 169.483 410.747 169.483C410.747 169.483 458.86 222.211 462.497 305.989C466.133 389.768 391.447 427.25 391.447 427.25C391.447 427.25 301.24 482.356 205.848 420.953C205.848 420.953 136.201 378.855 145.427 296.335C149.344 261.929 159.553 227.802 176.897 197.173C182.606 187.456 188.864 178.071 195.638 169.064V169.064Z" fill="white" stroke="#191515" stroke-width="3" stroke-miterlimit="10"/>
<path d="M215.078 200.812C215.078 200.812 227.386 148.641 286.968 139.692C286.968 139.692 326.828 131.3 359.137 155.637C391.446 179.973 394.243 204.724 394.243 204.724C396.761 213.396 397.88 224.304 395.361 232.977C392.285 243.606 379.837 253.537 368.787 258.431C351.585 266.27 332.004 267.803 313.122 268.082C286.128 268.502 257.177 269.481 233.121 255.634C229.033 253.423 225.384 250.485 222.351 246.963C217.717 241.468 214.458 234.949 212.842 227.945C211.207 218.86 211.978 209.506 215.078 200.812V200.812Z" fill="#191515" stroke="white" stroke-width="0.5" stroke-miterlimit="10"/>
<path d="M226.548 182.351C225.288 174.797 238.577 164.168 243.052 160.249C255.729 149.649 271.15 142.86 287.529 140.668C334.242 133.955 361.655 159.409 361.655 159.409C366.83 163.745 376.481 170.599 378.859 176.757C381.935 184.869 370.188 188.366 364.733 190.603C350.317 196.448 335.311 200.713 319.976 203.324C299.136 206.681 277.178 206.537 257.038 199.828C251.641 198.024 246.401 195.779 241.373 193.114C237.597 191.157 230.322 188.079 227.667 184.723C227.101 184.038 226.717 183.222 226.548 182.351Z" fill="#232222"/>
<path d="M265.569 223.609C269.414 223.609 273.172 222.469 276.369 220.333C279.566 218.197 282.058 215.161 283.53 211.608C285.001 208.056 285.386 204.147 284.636 200.376C283.886 196.605 282.034 193.141 279.315 190.422C276.597 187.703 273.133 185.851 269.361 185.101C265.59 184.351 261.681 184.736 258.129 186.208C254.577 187.679 251.54 190.171 249.404 193.368C247.268 196.565 246.128 200.324 246.128 204.169C246.128 206.722 246.63 209.25 247.607 211.608C248.584 213.967 250.016 216.11 251.822 217.916C253.627 219.721 255.77 221.153 258.129 222.13C260.488 223.107 263.016 223.609 265.569 223.609V223.609Z" fill="white" stroke="#191515" stroke-miterlimit="10"/>
<path d="M343.333 223.609C347.178 223.609 350.937 222.469 354.134 220.333C357.331 218.197 359.823 215.161 361.294 211.608C362.766 208.056 363.151 204.147 362.401 200.376C361.65 196.605 359.799 193.141 357.08 190.422C354.361 187.703 350.897 185.851 347.126 185.101C343.355 184.351 339.446 184.736 335.894 186.208C332.341 187.679 329.305 190.171 327.169 193.368C325.033 196.565 323.893 200.324 323.893 204.169C323.893 209.325 325.941 214.269 329.587 217.915C333.232 221.561 338.177 223.609 343.333 223.609V223.609Z" fill="white" stroke="#191515" stroke-miterlimit="10"/>
<path d="M212.141 147.244C213.856 146.69 215.538 146.036 217.177 145.286C221.932 143.608 226.686 142.073 231.582 140.67C248.398 135.926 265.636 132.835 283.053 131.44C307.385 129.427 331.881 130.935 355.784 135.916C362.356 137.314 368.79 138.992 375.224 140.81C378.581 141.789 381.798 142.909 385.155 144.023C387.952 145.002 391.029 145.565 393.546 147.379C392.707 145.561 390.189 143.743 388.651 142.345C382.637 136.89 376.484 131.435 370.05 126.399C366.273 123.463 361.797 119.406 357.182 117.728L355.503 117.309C350.049 116.05 344.594 115.491 339 114.652C330.328 113.394 321.516 112.414 312.705 111.854C289.488 110.595 265.289 111.994 243.333 119.966C243.331 120.112 209.624 144.028 212.141 147.244Z" fill="#CA4343" stroke="#191515" stroke-miterlimit="10"/>
<path d="M319.696 226.127C319.417 227.669 317.178 229.623 315.92 230.463C314.288 231.721 312.44 232.669 310.466 233.26C306.474 234.333 302.263 234.285 298.297 233.121C294.521 232.142 290.885 230.183 289.345 226.824C289.066 226.264 290.046 225.565 290.887 225.705C291.868 225.853 292.761 226.349 293.405 227.103C296.391 229.479 300.044 230.863 303.855 231.064C307.666 231.264 311.444 230.271 314.664 228.222C315.706 227.46 316.688 226.618 317.601 225.705C318.158 225.147 319.976 224.448 319.696 226.127Z" fill="white" stroke="white" stroke-width="0.75" stroke-miterlimit="10"/>
<path d="M332.005 177.036C332.752 177.036 333.482 176.814 334.103 176.399C334.724 175.984 335.208 175.394 335.494 174.704C335.78 174.014 335.855 173.255 335.709 172.522C335.563 171.79 335.204 171.117 334.676 170.589C334.147 170.061 333.475 169.701 332.742 169.555C332.009 169.409 331.25 169.484 330.56 169.77C329.87 170.056 329.28 170.54 328.865 171.161C328.45 171.782 328.229 172.512 328.229 173.259C328.228 173.755 328.326 174.246 328.516 174.705C328.705 175.163 328.984 175.579 329.334 175.93C329.685 176.281 330.101 176.559 330.56 176.749C331.018 176.938 331.509 177.036 332.005 177.036V177.036Z" fill="white"/>
<path d="M332.005 172.726C332.005 172.726 336.621 171.887 339.417 173.705C339.697 173.845 340.396 174.544 340.676 173.985C341.096 173.286 339.557 172.167 339.134 171.747C338.343 171.199 337.5 170.73 336.617 170.349C335.211 169.723 333.678 169.435 332.141 169.509L332.005 172.726Z" fill="white"/>
<path d="M275.78 177.975C275.033 177.975 274.302 177.754 273.681 177.339C273.06 176.924 272.576 176.334 272.29 175.644C272.005 174.954 271.93 174.194 272.076 173.462C272.221 172.729 272.581 172.056 273.109 171.528C273.637 171 274.31 170.64 275.043 170.494C275.775 170.349 276.535 170.424 277.225 170.709C277.915 170.995 278.505 171.479 278.92 172.1C279.335 172.721 279.556 173.452 279.556 174.198C279.556 174.694 279.459 175.186 279.269 175.644C279.079 176.102 278.801 176.519 278.45 176.869C278.1 177.22 277.683 177.498 277.225 177.688C276.767 177.878 276.276 177.975 275.78 177.975V177.975Z" fill="white"/>
<path d="M275.779 173.666C275.779 173.666 271.164 172.827 268.367 174.646C268.087 174.786 267.388 175.485 267.108 174.926C266.688 174.227 268.227 173.108 268.65 172.687C269.441 172.139 270.284 171.671 271.167 171.289C272.573 170.663 274.106 170.376 275.643 170.45L275.779 173.666Z" fill="white"/>
</svg>
