<svg width="1194" height="799" viewBox="0 0 1194 799" fill="none" xmlns="http://www.w3.org/2000/svg">
<path d="M105.918 242.781L95.9742 243.844L96.9294 252.781H105.918V242.781ZM62.6733 168.02L56.8909 176.179L56.9095 176.192L56.9281 176.205L62.6733 168.02ZM-108.472 154.094L-104.586 163.308L-104.586 163.308L-108.472 154.094ZM-155.014 188.909L-163.078 182.995L-163.078 182.995L-155.014 188.909ZM-171.506 239.116L-181.505 238.987L-181.506 239.052V239.116H-171.506ZM-160.878 279.795L-169.388 285.047L-169.348 285.111L-169.307 285.176L-160.878 279.795ZM-131.193 309.114L-136.626 317.509L-136.567 317.547L-136.508 317.584L-131.193 309.114ZM-89.7812 328.903L-93.1254 338.328L-93.1253 338.328L-89.7812 328.903ZM-43.9716 342.463L-41.5462 332.762L-41.6007 332.748L-41.6554 332.735L-43.9716 342.463ZM26.3921 360.054L23.9667 369.755L24.0457 369.775L24.1251 369.794L26.3921 360.054ZM108.116 386.807L104.167 395.994L104.182 396L104.198 396.007L108.116 386.807ZM178.847 429.318L172.49 437.037L172.512 437.056L172.534 437.074L178.847 429.318ZM213.295 692.449L221.578 698.052L221.588 698.038L221.597 698.024L213.295 692.449ZM115.812 770.509L119.835 779.664L119.847 779.659L119.859 779.653L115.812 770.509ZM-189.83 771.241L-193.724 780.452L-193.715 780.456L-193.705 780.46L-189.83 771.241ZM-290.244 692.082L-298.475 697.762L-298.461 697.782L-298.447 697.801L-290.244 692.082ZM-329.091 565.281V555.281H-339.491L-339.083 565.673L-329.091 565.281ZM-195.327 565.281L-185.355 564.536L-186.046 555.281H-195.327V565.281ZM-171.139 630.514L-163.395 624.188L-163.395 624.188L-171.139 630.514ZM-115.801 669.361L-119.323 678.72L-119.307 678.726L-119.291 678.732L-115.801 669.361ZM38.8523 668.994L42.5309 678.293L42.5573 678.283L42.5836 678.272L38.8523 668.994ZM91.625 631.614L99.4337 637.861L99.4569 637.832L99.4799 637.802L91.625 631.614ZM111.048 575.176L121.048 575.29L121.049 575.17L121.048 575.051L111.048 575.176ZM93.8239 526.801L86.2717 533.356L86.3026 533.392L86.3339 533.427L93.8239 526.801ZM46.5483 494.551L42.5284 503.708L42.5954 503.737L42.6628 503.765L46.5483 494.551ZM-23.8153 471.097L-26.3091 480.781L-26.2956 480.784L-26.2821 480.788L-23.8153 471.097ZM-109.205 449.108L-106.711 439.424L-106.716 439.422L-109.205 449.108ZM-255.795 376.912L-262.53 384.304L-262.503 384.329L-262.477 384.352L-255.795 376.912ZM-273.386 131.372L-281.471 125.487L-281.485 125.506L-281.499 125.526L-273.386 131.372ZM-174.804 54.0454L-170.768 63.1946L-170.745 63.1847L-170.723 63.1747L-174.804 54.0454ZM106.284 54.0454L102.079 63.1185L102.113 63.1339L102.146 63.1491L106.284 54.0454ZM201.202 130.639L193.015 136.382L193.025 136.396L193.035 136.411L201.202 130.639ZM236.75 242.781V252.781H246.925L246.748 242.608L236.75 242.781ZM115.861 241.719C112.147 206.965 96.2864 179.396 68.4185 159.835L56.9281 176.205C79.8784 192.314 92.8474 214.586 95.9742 243.844L115.861 241.719ZM68.4557 159.861C41.1496 140.508 6.20979 131.267 -35.5426 131.267V151.267C3.33003 151.267 33.8675 159.861 56.8909 176.179L68.4557 159.861ZM-35.5426 131.267C-64.8505 131.267 -90.5502 135.684 -112.357 144.879L-104.586 163.308C-85.8361 155.401 -62.9165 151.267 -35.5426 151.267V131.267ZM-112.357 144.879C-133.95 153.985 -151.054 166.599 -163.078 182.995L-146.95 194.823C-137.474 181.901 -123.55 171.305 -104.586 163.308L-112.357 144.879ZM-163.078 182.995C-175.105 199.396 -181.234 218.169 -181.505 238.987L-161.507 239.246C-161.288 222.439 -156.423 207.741 -146.95 194.823L-163.078 182.995ZM-181.506 239.116C-181.506 256.308 -177.594 271.748 -169.388 285.047L-152.367 274.544C-158.333 264.877 -161.506 253.198 -161.506 239.116H-181.506ZM-169.307 285.176C-161.139 297.972 -150.18 308.739 -136.626 317.509L-125.761 300.718C-137.126 293.364 -145.957 284.585 -152.449 274.415L-169.307 285.176ZM-136.508 317.584C-123.374 325.825 -108.9 332.73 -93.1254 338.328L-86.4371 319.479C-100.958 314.327 -114.092 308.038 -125.878 300.643L-136.508 317.584ZM-93.1253 338.328C-77.646 343.82 -62.0331 348.442 -46.2878 352.191L-41.6554 332.735C-56.6941 329.154 -71.621 324.736 -86.4372 319.479L-93.1253 338.328ZM-46.3969 352.164L23.9667 369.755L28.8174 350.353L-41.5462 332.762L-46.3969 352.164ZM24.1251 369.794C51.9029 376.259 78.5804 384.994 104.167 395.994L112.066 377.62C85.3684 366.142 57.563 357.042 28.659 350.314L24.1251 369.794ZM104.198 396.007C129.763 406.896 152.507 420.582 172.49 437.037L185.204 421.599C163.652 403.85 139.243 389.195 112.035 377.607L104.198 396.007ZM172.534 437.074C192.455 453.289 208.179 472.827 219.761 495.761L237.614 486.745C224.765 461.303 207.26 439.552 185.159 421.563L172.534 437.074ZM219.761 495.761C231.144 518.299 237.011 545.038 237.011 576.276H257.011C257.011 542.524 250.663 512.582 237.614 486.745L219.761 495.761ZM237.011 576.276C237.011 618.455 226.263 655.2 204.994 686.874L221.597 698.024C245.282 662.754 257.011 622.05 257.011 576.276H237.011ZM205.013 686.846C183.745 718.285 152.839 743.188 111.766 761.364L119.859 779.653C163.809 760.204 197.891 733.068 221.578 698.052L205.013 686.846ZM111.79 761.353C71.112 779.223 21.3757 788.361 -37.7415 788.361V808.361C23.3459 808.361 75.9789 798.93 119.835 779.664L111.79 761.353ZM-37.7415 788.361C-95.1262 788.361 -144.448 779.475 -185.954 762.023L-193.705 780.46C-149.211 799.167 -97.1408 808.361 -37.7415 808.361V788.361ZM-185.935 762.031C-227.13 744.612 -259.036 719.36 -282.041 686.363L-298.447 697.801C-273.078 734.191 -238.041 761.712 -193.724 780.452L-185.935 762.031ZM-282.014 686.402C-304.697 653.536 -317.205 613.188 -319.099 564.889L-339.083 565.673C-337.068 617.056 -323.678 661.243 -298.475 697.762L-282.014 686.402ZM-329.091 575.281H-195.327V555.281H-329.091V575.281ZM-205.299 566.027C-203.218 593.855 -194.561 617.649 -178.884 636.841L-163.395 624.188C-176.058 608.686 -183.526 588.991 -185.355 564.536L-205.299 566.027ZM-178.884 636.841C-163.505 655.666 -143.552 669.602 -119.323 678.72L-112.279 660.002C-133.493 652.018 -150.432 640.055 -163.395 624.188L-178.884 636.841ZM-119.291 678.732C-95.0483 687.759 -68.1896 692.188 -38.8409 692.188V672.188C-66.174 672.188 -90.6222 668.065 -112.312 659.989L-119.291 678.732ZM-38.8409 692.188C-8.30689 692.188 18.886 687.647 42.5309 678.293L35.1736 659.696C14.3527 667.932 -10.2499 672.188 -38.8409 672.188V692.188ZM42.5836 678.272C66.3523 668.713 85.4648 655.322 99.4337 637.861L83.8163 625.367C72.3761 639.667 56.3068 651.196 35.121 659.717L42.5836 678.272ZM99.4799 637.802C113.618 619.858 120.78 598.884 121.048 575.29L101.049 575.063C100.828 594.469 95.0414 611.119 83.7701 625.425L99.4799 637.802ZM121.048 575.051C120.778 553.495 114.38 534.946 101.314 520.175L86.3339 533.427C95.7446 544.065 100.83 557.766 101.049 575.301L121.048 575.051ZM101.376 520.246C88.8918 505.862 71.7352 494.319 50.4338 485.337L42.6628 503.765C61.9183 511.885 76.2786 521.842 86.2717 533.356L101.376 520.246ZM50.5682 485.395C29.9199 476.33 5.9245 468.348 -21.3485 461.406L-26.2821 480.788C0.194847 487.527 23.1085 495.182 42.5284 503.708L50.5682 485.395ZM-21.3216 461.413L-106.711 439.424L-111.698 458.792L-26.3091 480.781L-21.3216 461.413ZM-106.716 439.422C-167.453 423.818 -214.719 400.357 -249.114 369.471L-262.477 384.352C-225.043 417.967 -174.581 442.636 -111.693 458.793L-106.716 439.422ZM-249.061 369.519C-282.402 339.147 -299.301 298.838 -299.301 247.545H-319.301C-319.301 303.753 -300.53 349.688 -262.53 384.304L-249.061 369.519ZM-299.301 247.545C-299.301 205.246 -287.89 168.605 -265.273 137.218L-281.499 125.526C-306.769 160.594 -319.301 201.402 -319.301 247.545H-299.301ZM-265.302 137.257C-242.258 105.602 -210.861 80.883 -170.768 63.1946L-178.84 44.8962C-221.815 63.8556 -256.14 90.688 -281.471 125.487L-265.302 137.257ZM-170.723 63.1747C-130.656 45.2626 -85.0482 36.1932 -33.7102 36.1932V16.1932C-87.429 16.1932 -135.883 25.6918 -178.885 44.9162L-170.723 63.1747ZM-33.7102 36.1932C18.3932 36.1932 63.5721 45.2736 102.079 63.1185L110.489 44.9723C68.8598 25.6809 20.7092 16.1932 -33.7102 16.1932V36.1932ZM102.146 63.1491C141.012 80.8156 171.182 105.258 193.015 136.382L209.388 124.896C185.29 90.5431 152.181 63.923 110.422 44.9418L102.146 63.1491ZM193.035 136.411C214.768 167.161 226.051 202.563 226.752 242.955L246.748 242.608C245.983 198.465 233.567 159.106 209.368 124.868L193.035 136.411ZM236.75 232.781H105.918V252.781H236.75V232.781ZM362.36 787H352.36V797H362.36V787ZM362.36 224.091V214.091H352.36V224.091H362.36ZM495.025 224.091H505.025V214.091H495.025V224.091ZM495.025 787V797H505.025V787H495.025ZM374.82 123.31L367.989 130.612L368.02 130.642L368.052 130.671L374.82 123.31ZM374.82 21.4289L381.588 28.7906L381.62 28.7613L381.652 28.7316L374.82 21.4289ZM483.298 21.4289L476.407 28.676L476.468 28.7338L476.53 28.7906L483.298 21.4289ZM483.298 123.31L490.125 130.616L490.129 130.612L483.298 123.31ZM372.36 787V224.091H352.36V787H372.36ZM362.36 234.091H495.025V214.091H362.36V234.091ZM485.025 224.091V787H505.025V224.091H485.025ZM495.025 777H362.36V797H495.025V777ZM429.059 134.199C410.496 134.199 394.848 128.138 381.588 115.948L368.052 130.671C385.088 146.333 405.599 154.199 429.059 154.199V134.199ZM381.652 116.007C368.416 103.625 362.099 89.2447 362.099 72.3693H342.099C342.099 95.0734 350.929 114.653 367.989 130.612L381.652 116.007ZM362.099 72.3693C362.099 55.218 368.437 40.8812 381.588 28.7906L368.052 14.0673C350.908 29.8289 342.099 49.4524 342.099 72.3693H362.099ZM381.652 28.7316C394.92 16.3191 410.548 10.1733 429.059 10.1733V-9.82673C405.547 -9.82673 385.016 -1.80213 367.989 14.1262L381.652 28.7316ZM429.059 10.1733C447.845 10.1733 463.43 16.3377 476.407 28.676L490.188 14.1819C473.358 -1.82069 452.784 -9.82673 429.059 -9.82673V10.1733ZM476.53 28.7906C489.681 40.8812 496.019 55.218 496.019 72.3693H516.019C516.019 49.4524 507.21 29.8289 490.066 14.0673L476.53 28.7906ZM496.019 72.3693C496.019 89.2447 489.702 103.625 476.466 116.007L490.129 130.612C507.189 114.653 516.019 95.0734 516.019 72.3693H496.019ZM476.47 116.003C463.503 128.12 447.897 134.199 429.059 134.199V154.199C452.732 154.199 473.285 146.352 490.125 130.616L476.47 116.003ZM631.446 787H621.446V797H631.446V787ZM631.446 224.091V214.091H621.446V224.091H631.446ZM758.247 224.091H768.247V214.091H758.247V224.091ZM758.247 319.741H748.247V329.741H758.247V319.741ZM764.844 319.741V329.741H771.848L774.242 323.159L764.844 319.741ZM823.114 244.247L828.661 252.568L828.686 252.55L828.712 252.533L823.114 244.247ZM1016.61 244.614L1010.82 252.766L1010.87 252.797L1010.91 252.827L1016.61 244.614ZM1072.32 319.741L1062.85 322.947L1065.15 329.741H1072.32V319.741ZM1078.18 319.741V329.741H1084.96L1087.47 323.443L1078.18 319.741ZM1141.22 244.98L1146.53 253.448L1146.54 253.442L1146.55 253.437L1141.22 244.98ZM1423.04 787V797H1433.04V787H1423.04ZM1290.01 787H1280.01V797H1290.01V787ZM1262.15 353.091L1255.54 360.592L1255.57 360.617L1255.6 360.641L1262.15 353.091ZM1118.86 358.588L1111.44 351.888L1111.43 351.893L1118.86 358.588ZM1092.11 787V797H1102.11V787H1092.11ZM962.009 787H952.009V797H962.009V787ZM935.622 354.557L928.551 361.628L928.576 361.653L928.601 361.677L935.622 354.557ZM815.418 343.196L820.621 351.735L820.67 351.706L820.718 351.676L815.418 343.196ZM778.037 383.875L786.854 388.594L786.867 388.568L786.881 388.543L778.037 383.875ZM764.111 787V797H774.111V787H764.111ZM641.446 787V224.091H621.446V787H641.446ZM631.446 234.091H758.247V214.091H631.446V234.091ZM748.247 224.091V319.741H768.247V224.091H748.247ZM758.247 329.741H764.844V309.741H758.247V329.741ZM774.242 323.159C785.282 292.799 803.412 269.4 828.661 252.568L817.567 235.927C788.577 255.253 767.86 282.184 755.446 316.324L774.242 323.159ZM828.712 252.533C853.941 235.487 884.293 226.761 920.23 226.761V206.761C880.917 206.761 846.525 216.36 817.515 235.961L828.712 252.533ZM920.23 226.761C956.67 226.761 986.673 235.613 1010.82 252.766L1022.4 236.461C994.27 216.478 960.018 206.761 920.23 206.761V226.761ZM1010.91 252.827C1035.46 269.873 1052.75 293.121 1062.85 322.947L1081.79 316.535C1070.39 282.839 1050.54 256.002 1022.32 236.4L1010.91 252.827ZM1072.32 329.741H1078.18V309.741H1072.32V329.741ZM1087.47 323.443C1099.12 294.216 1118.7 270.933 1146.53 253.448L1135.9 236.512C1104.61 256.163 1082.17 282.721 1068.89 316.04L1087.47 323.443ZM1146.55 253.437C1174.52 235.783 1207.91 226.761 1247.13 226.761V206.761C1204.74 206.761 1167.52 216.552 1135.88 236.524L1146.55 253.437ZM1247.13 226.761C1296.62 226.761 1336.22 242.307 1366.86 272.94L1381 258.798C1346.16 223.954 1301.23 206.761 1247.13 206.761V226.761ZM1366.86 272.94C1397.13 303.214 1413.04 348.054 1413.04 409.162H1433.04C1433.04 344.69 1416.2 294.002 1381 258.798L1366.86 272.94ZM1413.04 409.162V787H1433.04V409.162H1413.04ZM1423.04 777H1290.01V797H1423.04V777ZM1300.01 787V429.685H1280.01V787H1300.01ZM1300.01 429.685C1300.01 393.109 1290.26 364.258 1268.71 345.541L1255.6 360.641C1271.18 374.174 1280.01 396.386 1280.01 429.685H1300.01ZM1268.77 345.59C1248.21 327.467 1223.07 318.537 1193.99 318.537V338.537C1218.65 338.537 1238.96 345.976 1255.54 360.592L1268.77 345.59ZM1193.99 318.537C1159.73 318.537 1131.77 329.361 1111.44 351.888L1126.28 365.288C1142.11 347.747 1164.24 338.537 1193.99 338.537V318.537ZM1111.43 351.893C1091.63 373.861 1082.11 402.182 1082.11 435.915H1102.11C1102.11 406.124 1110.42 382.894 1126.29 365.283L1111.43 351.893ZM1082.11 435.915V787H1102.11V435.915H1082.11ZM1092.11 777H962.009V797H1092.11V777ZM972.009 787V424.188H952.009V787H972.009ZM972.009 424.188C972.009 392.948 962.476 366.993 942.644 347.436L928.601 361.677C943.951 376.814 952.009 397.279 952.009 424.188H972.009ZM942.693 347.486C923.195 327.987 897.788 318.537 867.457 318.537V338.537C893.32 338.537 913.356 346.433 928.551 361.628L942.693 347.486ZM867.457 318.537C846.592 318.537 827.398 323.916 810.118 334.716L820.718 351.676C834.71 342.931 850.209 338.537 867.457 338.537V318.537ZM810.214 334.657C792.905 345.204 779.244 360.163 769.193 379.207L786.881 388.543C795.398 372.405 806.657 360.245 820.621 351.735L810.214 334.657ZM769.22 379.156C759.031 398.195 754.111 420.149 754.111 444.71H774.111C774.111 422.851 778.475 404.249 786.854 388.594L769.22 379.156ZM754.111 444.71V787H774.111V444.71H754.111ZM764.111 777H631.446V797H764.111V777ZM1563.49 787H1553.49V797H1563.49V787ZM1563.49 36.4545V26.4545H1553.49V36.4545H1563.49ZM1696.15 36.4545H1706.15V26.4545H1696.15V36.4545ZM1696.15 317.176H1686.15V327.176H1696.15V317.176ZM1701.65 317.176V327.176H1707.83L1710.6 321.648L1701.65 317.176ZM1730.6 273.565L1738.38 279.857L1738.4 279.827L1738.42 279.797L1730.6 273.565ZM1781.18 233.619L1785.77 242.501L1785.81 242.481L1785.85 242.46L1781.18 233.619ZM1980.17 250.111L1974.81 258.547L1974.84 258.569L1974.87 258.591L1980.17 250.111ZM2063.73 347.96L2054.7 352.248L2054.71 352.278L2054.73 352.309L2063.73 347.96ZM2064.46 663.864L2055.41 659.618L2055.41 659.618L2064.46 663.864ZM1981.64 762.812L1987.09 771.196L1987.09 771.196L1981.64 762.812ZM1782.64 780.77L1778.13 789.694L1778.13 789.694L1782.64 780.77ZM1731.34 741.923L1723.62 748.289L1723.68 748.356L1723.73 748.421L1731.34 741.923ZM1701.65 698.312L1710.53 693.714L1707.73 688.312H1701.65V698.312ZM1693.96 698.312V688.312H1683.96V698.312H1693.96ZM1693.96 787V797H1703.96V787H1693.96ZM1708.98 601.196L1699.62 604.707L1699.63 604.744L1699.65 604.78L1708.98 601.196ZM1754.06 665.33L1747.87 673.186L1747.92 673.228L1747.98 673.27L1754.06 665.33ZM1899.55 664.597L1905.75 672.443L1905.78 672.42L1905.81 672.396L1899.55 664.597ZM1944.26 599.73L1934.89 596.246L1934.88 596.269L1934.87 596.292L1944.26 599.73ZM1944.63 412.46L1954.01 408.995L1954.01 408.995L1944.63 412.46ZM1899.92 348.693L1906.05 340.8L1906.05 340.8L1899.92 348.693ZM1753.69 347.96L1747.68 339.972L1747.68 339.972L1753.69 347.96ZM1708.61 410.628L1699.27 407.061L1699.26 407.098L1699.24 407.135L1708.61 410.628ZM1573.49 787V36.4545H1553.49V787H1573.49ZM1563.49 46.4545H1696.15V26.4545H1563.49V46.4545ZM1686.15 36.4545V317.176H1706.15V36.4545H1686.15ZM1696.15 327.176H1701.65V307.176H1696.15V327.176ZM1710.6 321.648C1717.03 308.771 1726.25 294.842 1738.38 279.857L1722.83 267.273C1710.04 283.073 1699.95 298.218 1692.71 312.704L1710.6 321.648ZM1738.42 279.797C1749.85 265.456 1765.52 252.974 1785.77 242.501L1776.58 224.737C1754.32 236.253 1736.27 250.402 1722.78 267.333L1738.42 279.797ZM1785.85 242.46C1805.23 232.213 1830.61 226.761 1862.53 226.761V206.761C1828.5 206.761 1799.63 212.549 1776.5 224.779L1785.85 242.46ZM1862.53 226.761C1904.22 226.761 1941.55 237.388 1974.81 258.547L1985.54 241.674C1948.92 218.368 1907.83 206.761 1862.53 206.761V226.761ZM1974.87 258.591C2008.2 279.419 2034.86 310.457 2054.7 352.248L2072.77 343.673C2051.55 298.974 2022.51 264.78 1985.47 241.631L1974.87 258.591ZM2054.73 352.309C2074.67 393.6 2084.88 444.791 2084.88 506.278H2104.88C2104.88 442.675 2094.33 388.32 2072.74 343.611L2054.73 352.309ZM2084.88 506.278C2084.88 567.039 2074.91 618.033 2055.41 659.618L2073.52 668.109C2094.57 623.206 2104.88 569.143 2104.88 506.278H2084.88ZM2055.41 659.618C2035.8 701.426 2009.34 732.866 1976.19 754.429L1987.09 771.196C2023.81 747.316 2052.57 712.79 2073.52 668.109L2055.41 659.618ZM1976.19 754.429C1942.97 776.03 1905.31 786.895 1862.9 786.895V806.895C1908.93 806.895 1950.43 795.038 1987.09 771.196L1976.19 754.429ZM1862.9 786.895C1831.69 786.895 1806.61 781.684 1787.16 771.846L1778.13 789.694C1801.19 801.356 1829.61 806.895 1862.9 806.895V786.895ZM1787.16 771.846C1766.85 761.579 1750.88 749.393 1738.94 735.425L1723.73 748.421C1737.69 764.749 1755.92 778.461 1778.13 789.694L1787.16 771.846ZM1739.05 735.558C1726.67 720.561 1717.21 706.614 1710.53 693.714L1692.77 702.911C1700.26 717.374 1710.59 732.502 1723.62 748.289L1739.05 735.558ZM1701.65 688.312H1693.96V708.312H1701.65V688.312ZM1683.96 698.312V787H1703.96V698.312H1683.96ZM1693.96 777H1563.49V797H1693.96V777ZM1683.59 505.545C1683.59 542.865 1688.85 575.983 1699.62 604.707L1718.34 597.685C1708.59 571.682 1703.59 541.033 1703.59 505.545H1683.59ZM1699.65 604.78C1710.68 633.523 1726.68 656.495 1747.87 673.186L1760.24 657.473C1742.35 643.38 1728.29 623.596 1718.32 597.612L1699.65 604.78ZM1747.98 673.27C1769.73 689.922 1795.89 698.051 1825.89 698.051V678.051C1799.69 678.051 1777.96 671.033 1760.14 657.389L1747.98 673.27ZM1825.89 698.051C1857.07 698.051 1883.92 689.694 1905.75 672.443L1893.35 656.75C1875.6 670.772 1853.34 678.051 1825.89 678.051V698.051ZM1905.81 672.396C1927.22 655.213 1943.1 631.985 1953.65 603.168L1934.87 596.292C1925.38 622.203 1911.46 642.219 1893.29 656.797L1905.81 672.396ZM1953.63 603.214C1964.38 574.298 1969.65 541.691 1969.65 505.545H1949.65C1949.65 539.763 1944.66 569.946 1934.89 596.246L1953.63 603.214ZM1969.65 505.545C1969.65 469.665 1964.51 437.428 1954.01 408.995L1935.25 415.925C1944.78 441.731 1949.65 471.551 1949.65 505.545H1969.65ZM1954.01 408.995C1943.44 380.4 1927.53 357.503 1906.05 340.8L1893.78 356.587C1911.88 370.667 1925.77 390.282 1935.25 415.925L1954.01 408.995ZM1906.05 340.8C1884.21 323.808 1857.26 315.605 1825.89 315.605V335.605C1853.64 335.605 1876.04 342.794 1893.78 356.587L1906.05 340.8ZM1825.89 315.605C1795.7 315.605 1769.44 323.579 1747.68 339.972L1759.71 355.948C1777.52 342.534 1799.39 335.605 1825.89 335.605V315.605ZM1747.68 339.972C1726.15 356.18 1710.09 378.717 1699.27 407.061L1717.96 414.195C1727.66 388.788 1741.65 369.548 1759.71 355.948L1747.68 339.972ZM1699.24 407.135C1688.72 435.383 1683.59 468.257 1683.59 505.545H1703.59C1703.59 470.027 1708.48 439.623 1717.98 414.12L1699.24 407.135ZM2310.28 761.713L2305.13 770.288L2305.13 770.288L2310.28 761.713ZM2216.46 660.199L2207.54 664.711L2207.55 664.731L2207.56 664.751L2216.46 660.199ZM2216.46 354.923L2207.55 350.391L2207.54 350.411L2207.53 350.431L2216.46 354.923ZM2310.28 253.043L2315.42 261.618L2315.42 261.618L2310.28 253.043ZM2596.13 253.043L2590.99 261.618L2590.99 261.618L2596.13 253.043ZM2689.58 354.923L2680.65 359.415L2680.66 359.435L2680.67 359.455L2689.58 354.923ZM2689.58 660.199L2680.68 655.647L2680.67 655.667L2680.66 655.687L2689.58 660.199ZM2596.13 761.713L2590.99 753.138L2590.99 753.138L2596.13 761.713ZM2528.7 667.162L2535.03 674.906L2535.05 674.883L2535.08 674.86L2528.7 667.162ZM2573.41 600.463L2564 597.079L2563.99 597.115L2563.97 597.152L2573.41 600.463ZM2573.41 413.926L2563.96 417.211L2563.98 417.261L2564 417.31L2573.41 413.926ZM2528.7 346.861L2535.08 339.163L2535.08 339.163L2528.7 346.861ZM2377.71 346.861L2371.37 339.125L2371.35 339.144L2371.33 339.163L2377.71 346.861ZM2332.63 413.926L2323.21 410.568L2323.21 410.592L2323.2 410.615L2332.63 413.926ZM2332.63 600.463L2323.2 603.774L2323.21 603.811L2323.22 603.847L2332.63 600.463ZM2377.71 667.162L2371.33 674.86L2371.38 674.902L2371.43 674.943L2377.71 667.162ZM2453.2 787.994C2399.73 787.994 2353.94 776.245 2315.42 753.138L2305.13 770.288C2347.25 795.556 2396.73 807.994 2453.2 807.994V787.994ZM2315.42 753.138C2276.78 729.952 2246.78 697.537 2225.36 655.647L2207.56 664.751C2230.61 709.838 2263.15 745.099 2305.13 770.288L2315.42 753.138ZM2225.38 655.687C2204.23 613.843 2193.48 564.625 2193.48 507.744H2173.48C2173.48 567.159 2184.72 619.578 2207.54 664.711L2225.38 655.687ZM2193.48 507.744C2193.48 450.865 2204.23 401.516 2225.39 359.415L2207.53 350.431C2184.72 395.797 2173.48 448.328 2173.48 507.744H2193.48ZM2225.37 359.455C2246.79 317.321 2276.79 284.795 2315.42 261.618L2305.13 244.468C2263.14 269.665 2230.59 305.06 2207.55 350.391L2225.37 359.455ZM2315.42 261.618C2353.94 238.51 2399.73 226.761 2453.2 226.761V206.761C2396.73 206.761 2347.25 219.2 2305.13 244.468L2315.42 261.618ZM2453.2 226.761C2506.67 226.761 2552.47 238.51 2590.99 261.618L2601.28 244.468C2559.16 219.2 2509.68 206.761 2453.2 206.761V226.761ZM2590.99 261.618C2629.6 284.789 2659.47 317.301 2680.65 359.415L2698.52 350.431C2675.71 305.079 2643.28 269.671 2601.28 244.468L2590.99 261.618ZM2680.67 359.455C2702.07 401.546 2712.93 450.881 2712.93 507.744H2732.93C2732.93 448.312 2721.56 395.766 2698.5 350.391L2680.67 359.455ZM2712.93 507.744C2712.93 564.609 2702.07 613.812 2680.68 655.647L2698.49 664.751C2721.56 619.608 2732.93 567.175 2732.93 507.744H2712.93ZM2680.66 655.687C2659.49 697.556 2629.62 729.958 2590.99 753.138L2601.28 770.288C2643.27 745.093 2675.7 709.819 2698.51 664.711L2680.66 655.687ZM2590.99 753.138C2552.47 776.245 2506.67 787.994 2453.2 787.994V807.994C2509.68 807.994 2559.16 795.556 2601.28 770.288L2590.99 753.138ZM2453.94 701.716C2485.68 701.716 2512.94 692.952 2535.03 674.906L2522.37 659.418C2504.39 674.111 2481.81 681.716 2453.94 681.716V701.716ZM2535.08 674.86C2556.69 656.939 2572.55 633.104 2582.85 603.774L2563.97 597.152C2554.72 623.527 2540.77 644.158 2522.32 659.464L2535.08 674.86ZM2582.82 603.847C2593.28 574.755 2598.43 542.56 2598.43 507.378H2578.43C2578.43 540.605 2573.57 570.467 2564 597.079L2582.82 603.847ZM2598.43 507.378C2598.43 471.961 2593.28 439.642 2582.82 410.542L2564 417.31C2573.57 443.915 2578.43 473.897 2578.43 507.378H2598.43ZM2582.85 410.641C2572.57 381.073 2556.71 357.1 2535.08 339.163L2522.32 354.558C2540.75 369.849 2554.7 390.586 2563.96 417.211L2582.85 410.641ZM2535.08 339.163C2513 320.848 2485.72 311.94 2453.94 311.94V331.94C2481.77 331.94 2504.33 339.646 2522.32 354.558L2535.08 339.163ZM2453.94 311.94C2421.49 311.94 2393.73 320.812 2371.37 339.125L2384.05 354.596C2402.25 339.682 2425.31 331.94 2453.94 331.94V311.94ZM2371.33 339.163C2349.72 357.084 2333.75 381.03 2323.21 410.568L2342.05 417.284C2351.56 390.629 2365.64 369.865 2384.09 354.558L2371.33 339.163ZM2323.2 410.615C2312.99 439.693 2307.97 471.986 2307.97 507.378H2327.97C2327.97 473.872 2332.73 443.864 2342.07 417.237L2323.2 410.615ZM2307.97 507.378C2307.97 542.534 2313 574.704 2323.2 603.774L2342.07 597.152C2332.72 570.518 2327.97 540.631 2327.97 507.378H2307.97ZM2323.22 603.847C2333.76 633.147 2349.74 656.955 2371.33 674.86L2384.09 659.464C2365.62 644.142 2351.54 623.484 2342.04 597.079L2323.22 603.847ZM2371.43 674.943C2393.78 692.987 2421.52 701.716 2453.94 701.716V681.716C2425.27 681.716 2402.2 674.076 2383.99 659.381L2371.43 674.943ZM2968.2 36.4545H2978.2V26.4545H2968.2V36.4545ZM2968.2 787V797H2978.2V787H2968.2ZM2835.53 787H2825.53V797H2835.53V787ZM2835.53 36.4545V26.4545H2825.53V36.4545H2835.53ZM2958.2 36.4545V787H2978.2V36.4545H2958.2ZM2968.2 777H2835.53V797H2968.2V777ZM2845.53 787V36.4545H2825.53V787H2845.53ZM2835.53 46.4545H2968.2V26.4545H2835.53V46.4545ZM3207.23 761.713L3202.09 770.288L3202.09 770.288L3207.23 761.713ZM3113.41 660.199L3104.49 664.711L3104.5 664.731L3104.51 664.751L3113.41 660.199ZM3113.41 354.923L3104.5 350.391L3104.49 350.411L3104.48 350.431L3113.41 354.923ZM3207.23 253.043L3212.38 261.618L3212.38 261.618L3207.23 253.043ZM3493.08 253.043L3487.94 261.618L3487.94 261.618L3493.08 253.043ZM3586.54 354.923L3577.6 359.415L3577.61 359.435L3577.62 359.455L3586.54 354.923ZM3586.54 660.199L3577.63 655.647L3577.62 655.667L3577.61 655.687L3586.54 660.199ZM3493.08 761.713L3487.94 753.138L3487.94 753.138L3493.08 761.713ZM3425.65 667.162L3431.98 674.906L3432.01 674.883L3432.04 674.86L3425.65 667.162ZM3470.36 600.463L3460.95 597.079L3460.94 597.115L3460.93 597.152L3470.36 600.463ZM3470.36 413.926L3460.92 417.211L3460.93 417.261L3460.95 417.31L3470.36 413.926ZM3425.65 346.861L3432.04 339.163L3432.04 339.163L3425.65 346.861ZM3274.66 346.861L3268.33 339.125L3268.3 339.144L3268.28 339.163L3274.66 346.861ZM3229.59 413.926L3220.17 410.568L3220.16 410.592L3220.15 410.615L3229.59 413.926ZM3229.59 600.463L3220.15 603.774L3220.16 603.811L3220.18 603.847L3229.59 600.463ZM3274.66 667.162L3268.28 674.86L3268.33 674.902L3268.38 674.943L3274.66 667.162ZM3350.16 787.994C3296.69 787.994 3250.89 776.245 3212.38 753.138L3202.09 770.288C3244.2 795.556 3293.68 807.994 3350.16 807.994V787.994ZM3212.38 753.138C3173.73 729.952 3143.73 697.537 3122.32 655.647L3104.51 664.751C3127.56 709.838 3160.1 745.099 3202.09 770.288L3212.38 753.138ZM3122.34 655.687C3101.18 613.843 3090.43 564.625 3090.43 507.744H3070.43C3070.43 567.159 3081.67 619.578 3104.49 664.711L3122.34 655.687ZM3090.43 507.744C3090.43 450.865 3101.18 401.516 3122.35 359.415L3104.48 350.431C3081.67 395.797 3070.43 448.328 3070.43 507.744H3090.43ZM3122.33 359.455C3143.75 317.321 3173.75 284.795 3212.38 261.618L3202.09 244.468C3160.09 269.665 3127.54 305.06 3104.5 350.391L3122.33 359.455ZM3212.38 261.618C3250.89 238.51 3296.69 226.761 3350.16 226.761V206.761C3293.68 206.761 3244.2 219.2 3202.09 244.468L3212.38 261.618ZM3350.16 226.761C3403.63 226.761 3449.43 238.51 3487.94 261.618L3498.23 244.468C3456.12 219.2 3406.63 206.761 3350.16 206.761V226.761ZM3487.94 261.618C3526.56 284.789 3556.43 317.301 3577.6 359.415L3595.47 350.431C3572.67 305.079 3540.23 269.671 3498.23 244.468L3487.94 261.618ZM3577.62 359.455C3599.02 401.546 3609.88 450.881 3609.88 507.744H3629.88C3629.88 448.312 3618.52 395.766 3595.45 350.391L3577.62 359.455ZM3609.88 507.744C3609.88 564.609 3599.02 613.812 3577.63 655.647L3595.44 664.751C3618.52 619.608 3629.88 567.175 3629.88 507.744H3609.88ZM3577.61 655.687C3556.44 697.556 3526.57 729.958 3487.94 753.138L3498.23 770.288C3540.22 745.093 3572.65 709.819 3595.46 664.711L3577.61 655.687ZM3487.94 753.138C3449.43 776.245 3403.63 787.994 3350.16 787.994V807.994C3406.63 807.994 3456.12 795.556 3498.23 770.288L3487.94 753.138ZM3350.89 701.716C3382.63 701.716 3409.89 692.952 3431.98 674.906L3419.32 659.418C3401.34 674.111 3378.76 681.716 3350.89 681.716V701.716ZM3432.04 674.86C3453.65 656.939 3469.51 633.104 3479.8 603.774L3460.93 597.152C3451.67 623.527 3437.73 644.158 3419.27 659.464L3432.04 674.86ZM3479.77 603.847C3490.24 574.755 3495.39 542.56 3495.39 507.378H3475.39C3475.39 540.605 3470.52 570.467 3460.95 597.079L3479.77 603.847ZM3495.39 507.378C3495.39 471.961 3490.24 439.642 3479.77 410.542L3460.95 417.31C3470.52 443.915 3475.39 473.897 3475.39 507.378H3495.39ZM3479.81 410.641C3469.52 381.073 3453.66 357.1 3432.04 339.163L3419.27 354.558C3437.71 369.849 3451.66 390.586 3460.92 417.211L3479.81 410.641ZM3432.04 339.163C3409.95 320.848 3382.67 311.94 3350.89 311.94V331.94C3378.72 331.94 3401.29 339.646 3419.27 354.558L3432.04 339.163ZM3350.89 311.94C3318.44 311.94 3290.68 320.812 3268.33 339.125L3281 354.596C3299.21 339.682 3322.26 331.94 3350.89 331.94V311.94ZM3268.28 339.163C3246.67 357.084 3230.7 381.03 3220.17 410.568L3239.01 417.284C3248.51 390.629 3262.59 369.865 3281.05 354.558L3268.28 339.163ZM3220.15 410.615C3209.95 439.693 3204.93 471.986 3204.93 507.378H3224.93C3224.93 473.872 3229.68 443.864 3239.02 417.237L3220.15 410.615ZM3204.93 507.378C3204.93 542.534 3209.95 574.704 3220.15 603.774L3239.02 597.152C3229.68 570.518 3224.93 540.631 3224.93 507.378H3204.93ZM3220.18 603.847C3230.71 633.147 3246.69 656.955 3268.28 674.86L3281.05 659.464C3262.57 644.142 3248.49 623.484 3239 597.079L3220.18 603.847ZM3268.38 674.943C3290.73 692.987 3318.48 701.716 3350.89 701.716V681.716C3322.23 681.716 3299.15 674.076 3280.94 659.381L3268.38 674.943Z" fill="white"/>
</svg>
